<svg width="313" height="47" viewBox="0 0 313 47" fill="none" xmlns="http://www.w3.org/2000/svg">
<g clip-path="url(#clip0_16_2)">
<path d="M311.204 47.1517H295.648L277.5 23.5267L295.648 -0.0983276H312.5L292.796 23.5267L311.204 47.1517Z" fill="#68D2FF"/>
<path d="M311.204 47.1517H295.648L277.5 23.5267H292.796L311.204 47.1517Z" fill="#FFC400"/>
<path d="M133.71 46.9017V-0.0983276H166.165V9.12726H144.96V18.7659H164.506V28.0145H144.96V37.6761H166.165V46.9017H133.71Z" fill="#10157D"/>
<path d="M91.9602 46.9017V-0.0983276H111.188C114.672 -0.0983276 117.68 0.590149 120.21 1.9671C122.756 3.32875 124.718 5.23354 126.097 7.68146C127.475 10.1141 128.165 12.9445 128.165 16.1727C128.165 19.4162 127.46 22.2542 126.051 24.6868C124.657 27.1041 122.665 28.9783 120.074 30.3094C117.483 31.6404 114.407 32.306 110.847 32.306H98.983V23.3558H108.756C110.453 23.3558 111.869 23.0574 113.006 22.4608C114.157 21.8641 115.028 21.0303 115.619 19.9593C116.21 18.873 116.506 17.6108 116.506 16.1727C116.506 14.7192 116.21 13.4647 115.619 12.409C115.028 11.338 114.157 10.5119 113.006 9.93048C111.854 9.3491 110.438 9.05841 108.756 9.05841H103.21V46.9017H91.9602Z" fill="#10157D"/>
<path d="M42.017 -0.0983276H54.5852L64.4261 19.5692H64.8352L74.6761 -0.0983276H87.2443L70.2216 31.2044V46.9017H59.0398V31.2044L42.017 -0.0983276Z" fill="#10157D"/>
<path d="M-0.5 9.12726V-0.0983276H38.8409V9.12726H24.7273V46.9017H13.6364V9.12726H-0.5Z" fill="#10157D"/>
<rect x="187.5" y="-0.0983276" width="12" height="47" fill="#10157D"/>
<rect x="214.5" y="-0.0983276" width="12" height="47" fill="#10157D"/>
<rect x="231.5" y="-0.0983276" width="12" height="47" fill="#10157D"/>
<path d="M232 18.9017H266L270.125 24.2767L266 28.9017H232V18.9017Z" fill="#10157D"/>
<path d="M193.5 23.9017C193.5 21.1402 195.739 18.9017 198.5 18.9017H217.75C220.511 18.9017 222.75 21.1402 222.75 23.9017V23.9017C222.75 26.6631 220.511 28.9017 217.75 28.9017H198.5C195.739 28.9017 193.5 26.6631 193.5 23.9017V23.9017Z" fill="#10157D"/>
<path d="M232 36.9017H261L253.5 46.9017H232V36.9017Z" fill="#10157D"/>
<path d="M232 -0.0983276H251.965L260 9.90167H232V-0.0983276Z" fill="#10157D"/>
<path d="M260 47.1517H275L292.5 23.5267L275 -0.0983276H258.75L277.75 23.5267L260 47.1517Z" fill="#FF6A00"/>
<path d="M260 47.1517H275L292.5 23.5267H277.75L260 47.1517Z" fill="#008CC8"/>
</g>
<defs>
<clipPath id="clip0_16_2">
<rect width="313" height="47" fill="white"/>
</clipPath>
</defs>
</svg>
