<?xml version="1.0" encoding="UTF-8"?>
<svg version="1.1" xmlns="http://www.w3.org/2000/svg" width="1024" height="1024">
<path d="M0 0 C12.32516085 0.00117163 24.64951938 0.05185361 36.97431946 0.14541626 C40.90414746 0.17521921 44.83389969 0.19718245 48.7638092 0.21273804 C53.47090306 0.23267212 58.17740914 0.27319594 62.88421249 0.32879639 C64.64232829 0.34655399 66.40052503 0.35769426 68.15872574 0.36178589 C70.59715123 0.36886431 73.03409646 0.40070003 75.47221375 0.43847656 C76.17700709 0.43501315 76.88180044 0.43154974 77.60795116 0.42798138 C83.85558483 0.57133836 89.11633652 2.52165447 93.51286316 6.97949219 C97.05294367 12.70190545 99.47855597 18.43316702 101.59208679 24.81274414 C101.94511871 25.84282593 102.29815063 26.87290771 102.66188049 27.9342041 C103.80721401 31.28549164 104.93411971 34.64265702 106.06083679 38.00024414 C106.85863061 40.34635467 107.65763548 42.6920537 108.45780945 45.03735352 C110.07222147 49.7753045 111.67953223 54.51556765 113.28056335 59.25805664 C115.31184664 65.27206884 117.36412009 71.27860922 119.42802429 77.28149414 C126.04078403 96.52775169 132.53300337 115.81269495 138.94487 135.12670898 C142.55599901 146.00219888 146.18341631 156.87226442 149.8082428 167.74319458 C151.05855371 171.49339623 152.30842713 175.24374339 153.55815125 178.99414062 C157.03099731 189.41569013 160.50420219 199.83710013 163.99052429 210.25415039 C164.97268493 213.19021809 165.95446146 216.12641386 166.93583679 219.06274414 C167.16965057 219.76224182 167.40346436 220.4617395 167.6443634 221.18243408 C171.78090235 233.56783756 175.80336935 245.98910917 179.81886292 258.41418457 C184.00014054 271.33918063 188.33600724 284.20407384 192.76886559 297.04473495 C196.68668103 308.3982104 200.47454168 319.78793109 204.16620636 331.21681404 C209.41903565 347.46876783 214.768483 363.68658577 220.20146179 379.87915039 C220.83529715 381.77013288 221.46909136 383.66112915 222.10284424 385.55213928 C224.66074292 393.1819768 227.22048944 400.81118171 229.78886414 408.4375 C231.3987679 413.21859449 233.00274752 418.00164168 234.60294342 422.78599358 C235.20192702 424.57314892 235.80308635 426.35957678 236.40660858 428.14520454 C244.93271962 453.37685687 244.93271962 453.37685687 241.56083679 461.00024414 C237.8644494 466.33947038 234.22293462 469.24752653 227.81616211 470.56439209 C224.31353763 471.03335476 220.94704606 471.14189566 217.41313171 471.16137695 C216.72445511 471.16634186 216.0357785 471.17130676 215.32623291 471.17642212 C213.06458001 471.19093867 210.80299723 471.19782786 208.54130554 471.20336914 C207.76369684 471.20619652 206.98608814 471.2090239 206.18491554 471.21193695 C202.07022898 471.22688657 197.9555771 471.23614286 193.84086609 471.24047852 C189.6111192 471.24595865 185.38169494 471.26998899 181.15204906 471.29845047 C177.88075864 471.31715834 174.60954472 471.32228675 171.33820534 471.32381439 C169.77982634 471.32682279 168.22144809 471.33478939 166.66312218 471.34799957 C147.863772 471.49600008 147.863772 471.49600008 140.21318054 465.69165039 C132.98824792 458.36031228 129.85088817 447.45149891 126.6101532 437.87207031 C123.58301006 428.93153405 120.2962916 420.09350415 116.99833679 411.25024414 C116.45062855 409.77930411 115.9029394 408.30835698 115.35527039 406.83740234 C113.20966423 401.07928363 111.06034291 395.32262142 108.89335632 389.57250977 C108.62306107 388.85448181 108.35276581 388.13645386 108.07427979 387.39666748 C107.56466149 386.04362475 107.05410316 384.69093552 106.54238892 383.33868408 C105.12870977 379.58477265 103.81982126 375.80841792 102.56083679 372.00024414 C80.70808461 372.06071733 58.85545173 372.1381736 37.00283337 372.23595905 C26.85673243 372.2809627 16.71066695 372.32036675 6.5644989 372.34667969 C-2.27685461 372.36962285 -11.11809634 372.40297941 -19.95936126 372.4489457 C-24.6426105 372.47292776 -29.3257487 372.4916238 -34.009058 372.49785805 C-38.41430102 372.50388647 -42.8192597 372.52380443 -47.22439766 372.55451965 C-48.84373758 372.56333603 -50.46311461 372.56701506 -52.08247757 372.5652523 C-54.28880699 372.56360846 -56.49426036 372.58022092 -58.70046997 372.60151672 C-59.93659436 372.60612569 -61.17271875 372.61073465 -62.44630146 372.61548328 C-65.40957776 372.75226719 -65.40957776 372.75226719 -67.28011608 374.34331036 C-69.05906842 376.88643925 -69.96071679 379.57479736 -71.00556946 382.49243164 C-71.2405162 383.14190765 -71.47546295 383.79138367 -71.7175293 384.46054077 C-72.48729454 386.59586781 -73.24458591 388.73538916 -74.00166321 390.87524414 C-74.53657366 392.36731106 -75.07206242 393.85917078 -75.60810852 395.35083008 C-79.04939034 404.95624266 -82.38396511 414.59729736 -85.68916321 424.25024414 C-88.62826167 432.82242011 -91.59320763 441.38102756 -94.75166321 449.87524414 C-95.05298157 450.70701172 -95.35429993 451.5387793 -95.66474915 452.39575195 C-97.85782757 458.19329592 -100.37959218 463.81483626 -105.57197571 467.52368164 C-106.22939758 467.80469727 -106.88681946 468.08571289 -107.56416321 468.37524414 C-108.22674133 468.67172852 -108.88931946 468.96821289 -109.57197571 469.27368164 C-113.92183682 470.96630542 -117.72306627 471.16724614 -122.33198547 471.19311523 C-123.13566055 471.20129272 -123.93933563 471.20947021 -124.7673645 471.21789551 C-127.43009199 471.24272717 -130.09276605 471.25926403 -132.75556946 471.27368164 C-133.66707197 471.27900532 -134.57857449 471.28432899 -135.51769829 471.289814 C-140.34673598 471.31654193 -145.17574791 471.33591388 -150.00483704 471.3503418 C-153.99042342 471.36365496 -157.97549465 471.39145941 -161.96089172 471.43237305 C-166.78197455 471.48186179 -171.60259181 471.5064833 -176.42391777 471.51356888 C-178.2550305 471.52025598 -180.08613389 471.53541135 -181.91710091 471.55945969 C-201.30335388 471.79945868 -201.30335388 471.79945868 -208.43916321 466.00024414 C-211.22918992 462.83750875 -211.94899053 460.69562382 -211.77302551 456.40811157 C-211.06248936 451.28361314 -209.32842552 446.43840217 -207.70478821 441.54321289 C-207.31555679 440.33962128 -206.92632538 439.13602966 -206.52529907 437.89596558 C-205.4753167 434.65856436 -204.41491636 431.42497335 -203.3489418 428.19282913 C-202.46431692 425.5044302 -201.58838836 422.81323197 -200.71246052 420.12198925 C-194.80784343 401.98372176 -188.73104666 383.90745 -182.47306824 365.88813782 C-179.90639376 358.48570066 -177.41514239 351.05843811 -174.93916321 343.62524414 C-174.69826965 342.90222107 -174.4573761 342.179198 -174.20918274 341.43426514 C-170.86071983 331.37382037 -167.55125567 321.30074491 -164.25556946 311.22290039 C-154.74320336 282.13521402 -145.17241122 253.06782748 -135.50822449 224.03018188 C-134.27845652 220.33513468 -133.05004096 216.63964301 -131.82298279 212.94369507 C-124.58396421 191.14426967 -117.20383887 169.40109079 -109.58361816 147.73165894 C-105.73961623 136.7933408 -102.01018016 125.82271769 -98.37666321 114.81274414 C-92.75637302 97.82221463 -86.85542815 80.93641834 -80.9133606 64.05610657 C-78.64859681 57.61471343 -76.42118491 51.16099778 -74.20820618 44.70166016 C-72.63301378 40.10729848 -71.04522982 35.51737949 -69.45283508 30.92895508 C-68.80912443 29.06913982 -68.16933728 27.2079583 -67.53486633 25.3449707 C-61.37725227 7.31402789 -61.37725227 7.31402789 -52.84541321 2.87915039 C-45.52940055 -0.2061175 -37.55627339 0.26038436 -29.75166321 0.18774414 C-27.875768 0.15885602 -25.99987282 0.12996596 -24.12397766 0.10107422 C-16.08276466 -0.00007085 -8.0417031 0.00080491 0 0 Z M15.56083679 114.00024414 C15.18658569 115.12299744 14.81233459 116.24575073 14.42674255 117.40252686 C8.99715678 133.69128418 3.567571 149.9800415 -1.86201477 166.26879883 C-2.21709988 167.33405603 -2.57218498 168.39931324 -2.93803024 169.49685097 C-3.65176315 171.63804588 -4.36550063 173.77923928 -5.07924271 175.92043114 C-6.84839189 181.22781224 -8.6174626 186.53521946 -10.3863678 191.84268188 C-13.29960801 200.58340525 -16.21295465 209.32409127 -19.1301384 218.06349945 C-20.22139208 221.33274502 -21.31225994 224.60211928 -22.40311432 227.87149811 C-22.89317827 229.33984726 -23.38344652 230.80812825 -23.87395477 232.27632904 C-32.82328464 253.88880994 -32.82328464 253.88880994 -37.43916321 276.00024414 C-25.32851039 277.02404137 -13.28597774 277.14753011 -1.13838196 277.13305664 C0.87563082 277.13373173 2.88964351 277.13470346 4.90365601 277.13595581 C9.08976531 277.13741873 13.27585307 277.13532094 17.46195984 277.13061523 C22.83431583 277.1248705 28.20662238 277.12823549 33.57897663 277.1341877 C37.72152077 277.13779062 41.86405304 277.1366568 46.00659752 277.13405991 C47.98940728 277.13339237 49.97221812 277.13421304 51.95502663 277.13653946 C54.70948304 277.1390667 57.46385724 277.13522657 60.2183075 277.12963867 C61.03846848 277.1316629 61.85862946 277.13368713 62.7036438 277.13577271 C66.7633704 277.21795698 66.7633704 277.21795698 70.56083679 276.00024414 C70.87729251 270.92459118 69.74365996 266.81917364 68.06083679 262.09790039 C67.79352249 261.323909 67.52620819 260.5499176 67.25079346 259.75247192 C66.36251521 257.18623621 65.46158224 254.6246276 64.56083679 252.06274414 C63.93213955 250.2529553 63.30447434 248.44280765 62.67778015 246.63232422 C61.68561352 243.76696343 60.6925643 240.90193156 59.69607544 238.03807068 C57.20621312 230.88170492 54.75085976 223.71413597 52.31474304 216.53930664 C51.96398712 215.50629929 51.6132312 214.47329193 51.25184631 213.40898132 C50.20866196 210.3353535 49.16596984 207.26155902 48.12333679 204.18774414 C44.11138095 192.36388152 40.07993885 180.54847461 35.92840576 168.77275085 C34.0837522 163.5329163 32.30748733 158.27346939 30.56083679 153.00024414 C28.68385223 147.37596616 26.79178293 141.75686953 24.8901825 136.14086914 C24.29109254 134.36705119 23.69477802 132.59229366 23.10112 130.81665039 C22.23917146 128.24002727 21.36781971 125.66675815 20.49443054 123.09399414 C20.22980515 122.2961853 19.96517975 121.49837646 19.6925354 120.6763916 C18.583848 116.59393394 18.583848 116.59393394 15.56083679 114.00024414 Z " fill="#C3E4F9" transform="translate(401.4391632080078,313.999755859375)"/>
<path d="M0 0 C4.24825094 3.54130009 6.12439532 6.92841211 8.0625 12.0625 C8.44027588 13.04561157 8.44027588 13.04561157 8.82568359 14.04858398 C10.3929392 18.17902856 11.78325183 22.35309398 13.125 26.5625 C14.93606571 32.1074913 16.61893412 36.18287078 21.375 39.8125 C25.99803389 41.90387247 29.56639811 42.35467763 34.5 41.1875 C39.24319895 39.36319271 41.18039742 36.83395692 43.53515625 32.41796875 C45.78955792 27.15769818 47.64552647 21.76245019 49.37744141 16.30883789 C51.39930446 10.08860712 53.71480134 3.10589658 59.4375 -0.5625 C62.71857689 -1.12268386 64.80754353 -0.99764265 68 0 C71.59663225 3.11708128 73.84035146 5.12530129 74.24951172 9.92993164 C74.30896973 11.16090576 74.36842773 12.39187988 74.4296875 13.66015625 C74.50343496 15.02541616 74.57767003 16.39064981 74.65234375 17.75585938 C74.76503205 19.89913237 74.87406086 22.04237778 74.97412109 24.1862793 C75.33479752 37.77976335 75.33479752 37.77976335 81.1875 49.6875 C84.07809369 52.06421036 87.04577086 54.26091701 90.1328125 56.375 C93.34832628 59.17343877 94.86010491 61.85040152 95.37719816 66.0996545 C95.37822729 67.27207122 95.37925642 68.44448794 95.38031673 69.65243244 C95.38497665 70.31089388 95.38963657 70.96935532 95.3944377 71.64777014 C95.40640441 73.85785596 95.39698624 76.06732891 95.38768005 78.27742004 C95.39185227 79.87646013 95.39732916 81.47549726 95.40399987 83.07452887 C95.41848832 87.47165667 95.41419915 91.86859757 95.40683305 96.26573575 C95.40211201 101.00683117 95.41460188 105.74788554 95.42485046 110.4889679 C95.4420654 119.7788159 95.4428728 129.06859635 95.43763756 138.35845617 C95.43359921 145.90881 95.43503543 153.45914382 95.44038582 161.00949669 C95.44113424 162.08334962 95.44188266 163.15720255 95.44265376 164.26359647 C95.44418522 166.44501896 95.44572356 168.62644144 95.44726873 170.80786391 C95.46100382 191.27543538 95.45554927 211.74296865 95.44408352 232.21053924 C95.43415267 250.93838201 95.44708748 269.66612596 95.47101771 288.39395348 C95.49539704 307.61793166 95.50501929 326.84186378 95.49836498 346.06585711 C95.49486984 356.86092323 95.49712418 367.65591335 95.51461601 378.45096779 C95.52932351 387.64183387 95.52999257 396.83257046 95.5125451 406.02343396 C95.50402028 410.71303298 95.50192163 415.40240054 95.51719666 420.09198761 C95.53100989 424.38595654 95.52632406 428.67949501 95.50695742 432.97343882 C95.5031867 434.52591007 95.50615022 436.07841551 95.51656907 437.63085637 C95.60751658 452.22112347 95.60751658 452.22112347 91 459 C84.8761519 464.67612474 78.14119502 466.24321927 69.84643555 466.2746582 C68.83024139 466.2823246 68.83024139 466.2823246 67.79351807 466.29014587 C65.57449272 466.30394006 63.35578163 466.30309252 61.13671875 466.30078125 C59.57884101 466.30467447 58.02096433 466.30901042 56.46308899 466.31376648 C53.20428013 466.32120737 49.94557964 466.32095346 46.68676758 466.31567383 C42.53446459 466.30988955 38.38260916 466.32679513 34.23038006 466.3500185 C31.01393592 466.36483599 27.79759749 466.36561659 24.58112526 466.36250877 C23.0514926 466.36301822 21.52185342 466.36818424 19.99225426 466.37832069 C11.58229916 466.42720875 3.91253334 466.15110011 -4 463 C-4 462.34 -4 461.68 -4 461 C-4.60457031 460.75894531 -5.20914063 460.51789063 -5.83203125 460.26953125 C-10.02543873 457.81393227 -11.39356231 453.40863076 -13 449 C-13.42823792 446.1112566 -13.42823792 446.1112566 -13.61547852 443.05195618 C-13.72147873 441.33761855 -13.72147873 441.33761855 -13.82962036 439.58864784 C-14.11613043 433.55398472 -14.31317633 427.5206774 -14.46484375 421.48120117 C-14.50249851 420.07621524 -14.54044065 418.67123699 -14.5786438 417.26626587 C-14.68074664 413.4814859 -14.77884981 409.69661202 -14.87617874 405.91170669 C-14.98014008 401.89585375 -15.08782758 397.88010056 -15.19506836 393.86433411 C-15.39835771 386.23076425 -15.59828057 378.59711006 -15.79700756 370.96342021 C-16.01929643 362.43152511 -16.24558886 353.89973774 -16.47212791 345.36795461 C-16.75034867 334.88394678 -17.0272982 324.39990503 -17.30249023 313.91581726 C-17.32186793 313.17807705 -17.34124563 312.44033684 -17.36121053 311.68024087 C-17.45848821 307.96851427 -17.55465295 304.25676335 -17.64888477 300.54495811 C-17.68693551 299.0493448 -17.72501994 297.55373234 -17.76313782 296.05812073 C-17.78207763 295.31495283 -17.80101744 294.57178493 -17.82053119 293.80609679 C-17.93832581 289.23787249 -18.06694269 284.67008397 -18.20302731 280.10236967 C-19.06721207 250.97899351 -19.19795205 221.86530823 -19.23828125 192.73046875 C-19.2423448 190.19598189 -19.24646208 187.66149512 -19.25063133 185.12700844 C-19.26738187 174.59719135 -19.28203585 164.06737518 -19.28938007 153.53754711 C-19.29128828 150.84689012 -19.29320896 148.15623313 -19.29516602 145.46557617 C-19.29564976 144.79725902 -19.2961335 144.12894187 -19.2966319 143.44037268 C-19.30499691 132.52833225 -19.33049277 121.61639903 -19.36274669 110.70440575 C-19.39585045 99.41087301 -19.41349639 88.1173932 -19.41702431 76.82380563 C-19.41936666 70.51775506 -19.42822912 64.21187821 -19.45348549 57.90587425 C-19.47676793 52.00302604 -19.48099871 46.1004664 -19.47072411 40.19758415 C-19.47022946 38.03972155 -19.47652866 35.88184456 -19.49028015 33.72402573 C-19.64049672 8.75367956 -19.64049672 8.75367956 -12.4375 1.375 C-7.90112313 -1.18398182 -5.03970177 -1.21647974 0 0 Z " fill="#C2E3F9" transform="translate(675,319)"/>
<path d="M0 0 C2.38178815 3.28333093 3.49006577 6.2253946 4.24609375 10.18359375 C4.44138672 11.18277832 4.63667969 12.18196289 4.83789062 13.21142578 C5.03576172 14.27603027 5.23363281 15.34063477 5.4375 16.4375 C5.75944336 18.09628174 5.75944336 18.09628174 6.08789062 19.78857422 C7.12731557 25.18695257 8.1119138 30.59229462 9.03515625 36.01171875 C11.42115948 49.97199365 13.84025958 63.11009253 22 75 C22 75.66 22 76.32 22 77 C22.66 77 23.32 77 24 77 C24.7528125 77.76441406 25.505625 78.52882813 26.28125 79.31640625 C37.23574608 90.12924937 57.4623115 92.77676912 71.92578125 96.05078125 C72.70677185 96.22762451 73.48776245 96.40446777 74.29241943 96.58666992 C78.2223485 97.47281558 82.15484963 98.34460298 86.09228516 99.19677734 C86.83359177 99.36026169 87.57489838 99.52374603 88.33866882 99.69218445 C89.73111675 99.99926575 91.12494368 100.30018931 92.52033997 100.59358215 C96.70771529 101.52469087 100.24139601 102.9425024 104 105 C104 106.98 104 108.96 104 111 C95.82724024 114.21641673 87.61058428 116.45713037 79.0625 118.4375 C76.49210831 119.04784366 73.9217961 119.65852216 71.3515625 120.26953125 C67.87006553 121.09031727 64.38814308 121.90918015 60.90527344 122.72412109 C36.67199613 128.07532175 36.67199613 128.07532175 18.33203125 143.71484375 C9.34145955 159.1385518 6.82617536 178.03773065 4.51928711 195.47338867 C3.62488281 201.75252381 2.27970884 206.54013788 -1 212 C-3.375 213.6875 -3.375 213.6875 -6 214 C-9.125 213.125 -9.125 213.125 -12 211 C-14.28043698 205.7755031 -15.60603259 200.72509801 -16.46484375 195.08984375 C-16.58428848 194.35987686 -16.70373322 193.62990997 -16.82679749 192.87782288 C-17.20482283 190.56555884 -17.57243488 188.25184304 -17.9375 185.9375 C-21.6910206 157.44786562 -21.6910206 157.44786562 -38 135 C-46.16681652 129.72717597 -58.22520862 125 -68 125 C-68 124.34 -68 123.68 -68 123 C-69.14436523 122.87544434 -70.28873047 122.75088867 -71.46777344 122.62255859 C-75.90500997 122.06555934 -80.1792877 121.11656904 -84.515625 120.0390625 C-85.68300201 119.75221085 -85.68300201 119.75221085 -86.8739624 119.45956421 C-88.50480007 119.05688142 -90.1350247 118.65170829 -91.76464844 118.24414062 C-94.25474733 117.62381737 -96.74823648 117.01868638 -99.2421875 116.4140625 C-100.83356229 116.01915067 -102.42471642 115.62334832 -104.015625 115.2265625 C-104.75733948 115.0483194 -105.49905396 114.87007629 -106.26324463 114.68643188 C-110.10980298 113.7077551 -113.03606208 112.68721372 -116 110 C-115.25 105.25 -115.25 105.25 -113 103 C-110.77914429 102.31306458 -110.77914429 102.31306458 -107.97802734 101.69067383 C-106.92868011 101.45314896 -105.87933289 101.21562408 -104.79818726 100.97090149 C-103.08437363 100.59278572 -103.08437363 100.59278572 -101.3359375 100.20703125 C-98.90874446 99.65347563 -96.48166488 99.09942227 -94.0546875 98.54492188 C-90.23641107 97.68100881 -86.41721922 96.82188478 -82.59570312 95.97241211 C-53.69929339 90.6023822 -53.69929339 90.6023822 -31.92578125 72.73828125 C-22.67247692 56.4518696 -20.53384601 37.46059708 -17.78637695 19.21630859 C-15.26180235 2.94635176 -15.26180235 2.94635176 -10 -1 C-5.95205481 -2.34931506 -3.92892826 -1.54350753 0 0 Z " fill="#A9D7F3" transform="translate(712,123)"/>
<path d="M0 0 C3.125 0.3125 3.125 0.3125 4.734375 1.9765625 C6.35032026 4.6909874 6.90020403 6.89586114 7.5 10 C7.7475 11.22847656 7.995 12.45695312 8.25 13.72265625 C8.73109422 16.21946718 9.20025865 18.71817413 9.6640625 21.21826172 C13.46298404 46.46383789 13.46298404 46.46383789 28.5625 66 C36.71366404 70.56040962 45.96502954 72.79583468 54.9609375 75.04296875 C56.16967529 75.34605957 57.37841309 75.64915039 58.6237793 75.96142578 C61.05663746 76.56396435 63.49300884 77.15251391 65.93286133 77.72607422 C67.06232178 78.00338379 68.19178223 78.28069336 69.35546875 78.56640625 C70.37020264 78.80689697 71.38493652 79.0473877 72.43041992 79.29516602 C75.5119325 80.45858569 77.05191731 81.77655248 79.125 84.3125 C79.3125 86.375 79.3125 86.375 78.125 88.3125 C70.75696034 92.13737941 62.4687436 93.67651947 54.46313477 95.68212891 C33.7756199 100.68440937 33.7756199 100.68440937 18.6015625 114.7109375 C13.80941245 124.3823676 11.86289166 135.25614768 9.90625 145.79296875 C9.69355469 146.92009277 9.48085938 148.0472168 9.26171875 149.20849609 C8.84214973 151.45981852 8.43810675 153.71409819 8.05078125 155.97119141 C7.85871094 157.00808105 7.66664063 158.0449707 7.46875 159.11328125 C7.30568359 160.04309814 7.14261719 160.97291504 6.97460938 161.9309082 C5.92925326 164.86120962 4.80587814 165.7952062 2.125 167.3125 C-0.4375 167.3125 -0.4375 167.3125 -2.875 166.3125 C-5.40585057 162.78427954 -6.39867233 159.73775164 -7.0859375 155.48046875 C-7.37114258 153.79884644 -7.37114258 153.79884644 -7.66210938 152.08325195 C-7.95311523 150.30954224 -7.95311523 150.30954224 -8.25 148.5 C-11.91138637 124.56012968 -11.91138637 124.56012968 -25.88354492 105.70458984 C-35.2007022 99.19160335 -47.42183596 97.38695807 -58.25952148 94.66699219 C-60.74525441 94.03990902 -63.22615654 93.39599346 -65.70703125 92.75 C-66.46748245 92.56445557 -67.22793365 92.37891113 -68.01142883 92.18774414 C-72.35267808 91.04665405 -75.03482317 89.83560412 -77.875 86.3125 C-77.40234375 83.96875 -77.40234375 83.96875 -75.875 81.3125 C-72.98175664 80.20797443 -70.43490912 79.46417507 -67.4375 78.8125 C-65.71089431 78.39601236 -63.98433308 77.97934033 -62.2578125 77.5625 C-61.36868164 77.35625 -60.47955078 77.15 -59.56347656 76.9375 C-36.64189235 72.19183605 -36.64189235 72.19183605 -19.51171875 57.30859375 C-12.45458549 44.74558562 -10.4198204 29.08955573 -8.30639648 15.05395508 C-6.04176081 0.65671313 -6.04176081 0.65671313 0 0 Z " fill="#ADD8F4" transform="translate(837.875,268.6875)"/>
<path d="M0 0 C2.5625 0.5 2.5625 0.5 4.14477539 2.69458008 C5.56352328 5.50202488 6.2420668 7.80458435 6.80859375 10.88671875 C7.00646484 11.90830078 7.20433594 12.92988281 7.40820312 13.98242188 C7.79911817 16.09955584 8.1897486 18.21674238 8.58007812 20.33398438 C10.45756629 30.02522588 12.95885618 41.23292901 21.19921875 47.5078125 C24.92732114 49.71609615 28.34815967 50.87929879 32.5 52 C33.23492676 52.20866699 33.96985352 52.41733398 34.72705078 52.63232422 C38.43860946 53.67741891 42.16322947 54.66016338 45.90234375 55.6015625 C46.58240479 55.77494141 47.26246582 55.94832031 47.96313477 56.12695312 C49.83447234 56.59901058 51.71011151 57.05391885 53.5859375 57.5078125 C57.97782258 58.97177419 57.97782258 58.97177419 59.5625 61.5 C59.5625 63.5625 59.5625 63.5625 58.5625 65.5 C56.4375 66.625 56.4375 66.625 53.5625 67.5 C52.48355469 67.83128906 51.40460938 68.16257812 50.29296875 68.50390625 C46.90535297 69.40845287 43.51854071 70.19797449 40.0949707 70.94824219 C29.99370751 73.17445262 22.19509213 75.44536343 15.8515625 84.14453125 C12.47000186 90.32356479 10.83811058 96.91835527 9.375 103.75 C9.10913086 104.93335938 9.10913086 104.93335938 8.83789062 106.140625 C8.04686101 109.75676037 7.5625 112.75689324 7.5625 116.5 C6.9025 116.5 6.2425 116.5 5.5625 116.5 C5.2325 118.15 4.9025 119.8 4.5625 121.5 C2.25 122.125 2.25 122.125 -0.4375 122.5 C-4.29378676 119.92914216 -4.18593684 118.51659873 -5.15625 114.06640625 C-5.30026245 113.43266586 -5.4442749 112.79892548 -5.59265137 112.14598083 C-6.05240883 110.12052116 -6.49661751 108.09214607 -6.9375 106.0625 C-7.51864252 103.39412423 -8.11446724 100.72962405 -8.71875 98.06640625 C-8.97720703 96.87990479 -9.23566406 95.69340332 -9.50195312 94.47094727 C-10.43819904 91.49778012 -11.16165055 90.48979871 -13.4375 88.5 C-13.56125 87.71625 -13.685 86.9325 -13.8125 86.125 C-14.72559189 82.29001405 -16.38643518 80.99066516 -19.4375 78.5 C-26.68375588 74.19073295 -34.26014936 71.90927424 -42.375 69.8125 C-44.59372414 69.23010084 -46.81124001 68.64307324 -49.02734375 68.05078125 C-50.47935181 67.67433472 -50.47935181 67.67433472 -51.96069336 67.2902832 C-54.4375 66.5 -54.4375 66.5 -57.4375 64.5 C-57.625 61.875 -57.625 61.875 -57.4375 59.5 C-50.32546278 56.98740272 -43.16205056 55.14532865 -35.81054688 53.48242188 C-26.72305789 51.31739944 -19.74674512 48.41631675 -14.4375 40.5 C-10.65670377 32.90715392 -9.00199101 24.81776429 -7.3125 16.5625 C-6.81572807 14.15634059 -6.31338584 11.7513225 -5.8046875 9.34765625 C-5.58925293 8.29586182 -5.37381836 7.24406738 -5.15185547 6.16040039 C-4.23277253 2.73755461 -3.65402959 0.74954453 0 0 Z " fill="#B8DEF6" transform="translate(175.4375,452.5)"/>
<path d="M0 0 C12.32516085 0.00117163 24.64951938 0.05185361 36.97431946 0.14541626 C40.90414746 0.17521921 44.83389969 0.19718245 48.7638092 0.21273804 C53.47090306 0.23267212 58.17740914 0.27319594 62.88421249 0.32879639 C64.64232829 0.34655399 66.40052503 0.35769426 68.15872574 0.36178589 C70.59715123 0.36886431 73.03409646 0.40070003 75.47221375 0.43847656 C76.17700709 0.43501315 76.88180044 0.43154974 77.60795116 0.42798138 C83.85558483 0.57133836 89.11633652 2.52165447 93.51286316 6.97949219 C97.05294367 12.70190545 99.47855597 18.43316702 101.59208679 24.81274414 C101.94511871 25.84282593 102.29815063 26.87290771 102.66188049 27.9342041 C103.80721401 31.28549164 104.93411971 34.64265702 106.06083679 38.00024414 C106.85863061 40.34635467 107.65763548 42.6920537 108.45780945 45.03735352 C110.07222147 49.7753045 111.67953223 54.51556765 113.28056335 59.25805664 C115.31184664 65.27206884 117.36412009 71.27860922 119.42802429 77.28149414 C126.04078403 96.52775169 132.53300337 115.81269495 138.94487 135.12670898 C142.55599901 146.00219888 146.18341631 156.87226442 149.8082428 167.74319458 C151.05855371 171.49339623 152.30842713 175.24374339 153.55815125 178.99414062 C157.03099731 189.41569013 160.50420219 199.83710013 163.99052429 210.25415039 C164.97268493 213.19021809 165.95446146 216.12641386 166.93583679 219.06274414 C167.16965057 219.76224182 167.40346436 220.4617395 167.6443634 221.18243408 C171.78090235 233.56783756 175.80336935 245.98910917 179.81886292 258.41418457 C184.00014054 271.33918063 188.33600724 284.20407384 192.76886559 297.04473495 C196.68668103 308.3982104 200.47454168 319.78793109 204.16620636 331.21681404 C209.41903565 347.46876783 214.768483 363.68658577 220.20146179 379.87915039 C220.83529715 381.77013288 221.46909136 383.66112915 222.10284424 385.55213928 C224.66074292 393.1819768 227.22048944 400.81118171 229.78886414 408.4375 C231.3987679 413.21859449 233.00274752 418.00164168 234.60294342 422.78599358 C235.20192702 424.57314892 235.80308635 426.35957678 236.40660858 428.14520454 C244.93271962 453.37685687 244.93271962 453.37685687 241.56083679 461.00024414 C237.8644494 466.33947038 234.22293462 469.24752653 227.81616211 470.56439209 C224.31353763 471.03335476 220.94704606 471.14189566 217.41313171 471.16137695 C216.72445511 471.16634186 216.0357785 471.17130676 215.32623291 471.17642212 C213.06458001 471.19093867 210.80299723 471.19782786 208.54130554 471.20336914 C207.76369684 471.20619652 206.98608814 471.2090239 206.18491554 471.21193695 C202.07022898 471.22688657 197.9555771 471.23614286 193.84086609 471.24047852 C189.6111192 471.24595865 185.38169494 471.26998899 181.15204906 471.29845047 C177.88075864 471.31715834 174.60954472 471.32228675 171.33820534 471.32381439 C169.77982634 471.32682279 168.22144809 471.33478939 166.66312218 471.34799957 C147.863772 471.49600008 147.863772 471.49600008 140.21318054 465.69165039 C132.98824792 458.36031228 129.85088817 447.45149891 126.6101532 437.87207031 C123.58301006 428.93153405 120.2962916 420.09350415 116.99833679 411.25024414 C116.45062855 409.77930411 115.9029394 408.30835698 115.35527039 406.83740234 C113.20966423 401.07928363 111.06034291 395.32262142 108.89335632 389.57250977 C108.62306107 388.85448181 108.35276581 388.13645386 108.07427979 387.39666748 C107.56466149 386.04362475 107.05410316 384.69093552 106.54238892 383.33868408 C105.12870977 379.58477265 103.81982126 375.80841792 102.56083679 372.00024414 C80.70808461 372.06071733 58.85545173 372.1381736 37.00283337 372.23595905 C26.85673243 372.2809627 16.71066695 372.32036675 6.5644989 372.34667969 C-2.27685461 372.36962285 -11.11809634 372.40297941 -19.95936126 372.4489457 C-24.6426105 372.47292776 -29.3257487 372.4916238 -34.009058 372.49785805 C-38.41430102 372.50388647 -42.8192597 372.52380443 -47.22439766 372.55451965 C-48.84373758 372.56333603 -50.46311461 372.56701506 -52.08247757 372.5652523 C-54.28880699 372.56360846 -56.49426036 372.58022092 -58.70046997 372.60151672 C-59.93659436 372.60612569 -61.17271875 372.61073465 -62.44630146 372.61548328 C-65.40957776 372.75226719 -65.40957776 372.75226719 -67.28011608 374.34331036 C-69.05906842 376.88643925 -69.96071679 379.57479736 -71.00556946 382.49243164 C-71.2405162 383.14190765 -71.47546295 383.79138367 -71.7175293 384.46054077 C-72.48729454 386.59586781 -73.24458591 388.73538916 -74.00166321 390.87524414 C-74.53657366 392.36731106 -75.07206242 393.85917078 -75.60810852 395.35083008 C-79.04939034 404.95624266 -82.38396511 414.59729736 -85.68916321 424.25024414 C-88.62826167 432.82242011 -91.59320763 441.38102756 -94.75166321 449.87524414 C-95.05298157 450.70701172 -95.35429993 451.5387793 -95.66474915 452.39575195 C-97.85782757 458.19329592 -100.37959218 463.81483626 -105.57197571 467.52368164 C-106.22939758 467.80469727 -106.88681946 468.08571289 -107.56416321 468.37524414 C-108.22674133 468.67172852 -108.88931946 468.96821289 -109.57197571 469.27368164 C-113.92183682 470.96630542 -117.72306627 471.16724614 -122.33198547 471.19311523 C-123.13566055 471.20129272 -123.93933563 471.20947021 -124.7673645 471.21789551 C-127.43009199 471.24272717 -130.09276605 471.25926403 -132.75556946 471.27368164 C-133.66707197 471.27900532 -134.57857449 471.28432899 -135.51769829 471.289814 C-140.34673598 471.31654193 -145.17574791 471.33591388 -150.00483704 471.3503418 C-153.99042342 471.36365496 -157.97549465 471.39145941 -161.96089172 471.43237305 C-166.78197455 471.48186179 -171.60259181 471.5064833 -176.42391777 471.51356888 C-178.2550305 471.52025598 -180.08613389 471.53541135 -181.91710091 471.55945969 C-201.30335388 471.79945868 -201.30335388 471.79945868 -208.43916321 466.00024414 C-211.22918992 462.83750875 -211.94899053 460.69562382 -211.77302551 456.40811157 C-211.06248936 451.28361314 -209.32842552 446.43840217 -207.70478821 441.54321289 C-207.31555679 440.33962128 -206.92632538 439.13602966 -206.52529907 437.89596558 C-205.4753167 434.65856436 -204.41491636 431.42497335 -203.3489418 428.19282913 C-202.46431692 425.5044302 -201.58838836 422.81323197 -200.71246052 420.12198925 C-194.80784343 401.98372176 -188.73104666 383.90745 -182.47306824 365.88813782 C-179.90639376 358.48570066 -177.41514239 351.05843811 -174.93916321 343.62524414 C-174.69826965 342.90222107 -174.4573761 342.179198 -174.20918274 341.43426514 C-170.86071983 331.37382037 -167.55125567 321.30074491 -164.25556946 311.22290039 C-154.74320336 282.13521402 -145.17241122 253.06782748 -135.50822449 224.03018188 C-134.27845652 220.33513468 -133.05004096 216.63964301 -131.82298279 212.94369507 C-124.58396421 191.14426967 -117.20383887 169.40109079 -109.58361816 147.73165894 C-105.73961623 136.7933408 -102.01018016 125.82271769 -98.37666321 114.81274414 C-92.75637302 97.82221463 -86.85542815 80.93641834 -80.9133606 64.05610657 C-78.64859681 57.61471343 -76.42118491 51.16099778 -74.20820618 44.70166016 C-72.63301378 40.10729848 -71.04522982 35.51737949 -69.45283508 30.92895508 C-68.80912443 29.06913982 -68.16933728 27.2079583 -67.53486633 25.3449707 C-61.37725227 7.31402789 -61.37725227 7.31402789 -52.84541321 2.87915039 C-45.52940055 -0.2061175 -37.55627339 0.26038436 -29.75166321 0.18774414 C-27.875768 0.15885602 -25.99987282 0.12996596 -24.12397766 0.10107422 C-16.08276466 -0.00007085 -8.0417031 0.00080491 0 0 Z M-58.72846985 9.79150391 C-64.59799368 17.36986585 -67.10697719 27.57158304 -70.00166321 36.56274414 C-70.87570169 39.24013474 -71.75608009 41.91541008 -72.63838196 44.59008789 C-72.86539795 45.27901123 -73.09241394 45.96793457 -73.3263092 46.67773438 C-75.87247473 54.36822996 -78.59327145 61.99524305 -81.31416321 69.62524414 C-85.43079378 81.18591162 -89.40338358 92.78507255 -93.25166321 104.43774414 C-97.67820883 117.84092277 -102.2653573 131.18133189 -106.93916321 144.50024414 C-112.87735726 161.43129398 -118.64279345 178.41153019 -124.27069092 195.44802856 C-125.96647004 200.57996243 -127.67567517 205.70727535 -129.39228821 210.83227539 C-134.64834914 226.53146545 -139.83659836 242.25045492 -144.93916321 258.00024414 C-152.7982113 282.25070452 -160.82635827 306.43957854 -169.11668396 330.54614258 C-169.38810211 331.33537109 -169.65952026 332.12459961 -169.93916321 332.93774414 C-170.21033966 333.72616699 -170.48151611 334.51458984 -170.76091003 335.3269043 C-175.3149344 348.58064116 -179.68803464 361.88676199 -183.98335266 375.22631836 C-187.217169 385.26454958 -190.51381637 395.27967821 -193.86283875 405.28005981 C-195.3513607 409.72849777 -196.8320061 414.17956538 -198.31356812 418.63032532 C-199.4819087 422.13769099 -200.65476461 425.64341065 -201.83808899 429.14575195 C-203.13618501 432.98837881 -204.41333297 436.83766782 -205.68916321 440.68774414 C-206.07225647 441.80930908 -206.45534973 442.93087402 -206.85005188 444.08642578 C-208.89036913 450.30296513 -210.06684302 455.44883608 -209.43916321 462.00024414 C-206.88239684 465.33824468 -204.35492252 467.51706059 -200.43916321 469.00024414 C-197.6350622 469.20128432 -194.92992174 469.29400285 -192.12568665 469.29077148 C-191.28939224 469.29748871 -190.45309784 469.30420593 -189.59146118 469.31112671 C-186.82709302 469.33012134 -184.06296757 469.33403198 -181.29853821 469.33618164 C-179.37285767 469.34260978 -177.44717812 469.34933816 -175.52149963 469.35635376 C-171.48312619 469.36833107 -167.44483831 469.37203424 -163.40644836 469.37084961 C-158.24378462 469.37064668 -153.08167295 469.39792008 -147.91913986 469.43239403 C-143.94015509 469.45468825 -139.96130248 469.45868633 -135.98226166 469.45763016 C-134.0797511 469.45998342 -132.17723675 469.4687914 -130.2747879 469.48429489 C-127.60621118 469.50400101 -124.93881568 469.49809845 -122.2702179 469.48608398 C-121.49175003 469.497323 -120.71328217 469.50856201 -119.91122437 469.5201416 C-112.89096747 469.44025971 -107.70635801 467.20038107 -102.66572571 462.30883789 C-100.01996054 458.37732368 -98.40618142 454.5034431 -96.81416321 450.06274414 C-96.23974432 448.51155439 -95.6642375 446.96076703 -95.08760071 445.41040039 C-94.81286926 444.66274414 -94.53813782 443.91508789 -94.25508118 443.14477539 C-93.50503126 441.17336952 -92.69602848 439.246341 -91.84541321 437.31665039 C-90.52108152 434.19343483 -89.50516704 431.13128393 -88.56416321 427.87524414 C-87.28016642 423.60968178 -85.89130369 419.45410413 -84.25166321 415.31274414 C-81.13766359 407.43103703 -78.44842663 399.40424 -75.73725891 391.37646484 C-74.07215688 386.4956915 -72.38272731 381.61997622 -70.47431946 376.82836914 C-70.20111877 376.13130859 -69.92791809 375.43424805 -69.6464386 374.71606445 C-67.92308898 372.26678213 -66.28052261 371.90765154 -63.43916321 371.00024414 C-60.27664185 370.74018192 -60.27664185 370.74018192 -56.64546204 370.72608948 C-55.97501515 370.7208528 -55.30456827 370.71561612 -54.61380482 370.71022075 C-52.37454045 370.69525768 -50.13550532 370.69451644 -47.89619446 370.69384766 C-46.28782263 370.68622389 -44.67945445 370.67779601 -43.0710907 370.66862488 C-38.7075468 370.64669953 -34.34407295 370.63788409 -29.98048019 370.63279843 C-27.25418518 370.62915376 -24.5279085 370.62291325 -21.80162048 370.61579704 C-12.29049371 370.59131327 -2.77942144 370.57825213 6.73173523 370.57470703 C15.59838359 370.57106844 24.4646865 370.54114727 33.33122921 370.49930245 C40.94494535 370.46462931 48.55854677 370.44915914 56.17234135 370.448461 C60.71933267 370.44766742 65.26597171 370.43889148 69.81288147 370.41046333 C74.08776465 370.38433216 78.36200212 370.38204938 82.63692856 370.39811897 C84.20547771 370.3999372 85.77406359 370.39320896 87.34253311 370.37730026 C89.48483436 370.35689601 91.62486389 370.36735366 93.76713562 370.38551331 C94.96542496 370.38350198 96.16371429 370.38149065 97.39831543 370.37941837 C101.49339204 371.18331147 102.95043718 372.81764506 105.56083679 376.00024414 C106.9954071 378.84912109 106.9954071 378.84912109 108.13896179 381.98852539 C108.57305359 383.15778564 109.00714539 384.3270459 109.45439148 385.53173828 C109.90679043 386.79198367 110.35893282 388.05232118 110.81083679 389.31274414 C111.29030065 390.61849059 111.77111275 391.92374271 112.2532196 393.22851562 C113.23069033 395.87863572 114.20118896 398.53114795 115.16630554 401.18579102 C116.80082377 405.67198595 118.49405209 410.13539863 120.18754578 414.59960938 C123.02634739 422.08809779 125.78676395 429.59067959 128.3691864 437.17163086 C133.29428704 454.22414153 133.29428704 454.22414153 144.26563358 466.87439919 C149.0548263 468.70964103 153.11616217 469.37894328 158.30278015 469.38842773 C159.03076309 469.39368469 159.75874603 469.39894165 160.50878906 469.40435791 C162.88964484 469.41744592 165.26981923 469.40885933 167.65068054 469.39868164 C169.32162604 469.40070582 170.99257068 469.40362012 172.66351318 469.40737915 C176.15598508 469.41178753 179.64822587 469.40542044 183.14067078 469.39135742 C187.59684913 469.37427966 192.05248474 469.3841071 196.50864315 469.40207481 C199.9566754 469.41296439 203.404581 469.40944248 206.85261726 469.40169144 C208.49471159 469.39970301 210.13681775 469.40210052 211.77889824 469.4091301 C226.10688765 469.74016749 226.10688765 469.74016749 238.56083679 463.43774414 C241.50959287 458.36956963 242.14927131 453.2638774 241.10371399 447.46490479 C240.3554913 444.79345068 239.49677603 442.18906063 238.58036804 439.57055664 C238.25644577 438.5949881 237.9325235 437.61941956 237.5987854 436.61428833 C236.54171363 433.44487538 235.45776467 430.28538965 234.37333679 427.12524414 C233.63029471 424.91329332 232.88910143 422.70072063 232.14970398 420.48754883 C230.66447831 416.05167484 229.16889068 411.61953661 227.66288757 407.19067383 C225.83790368 401.82348586 224.03330213 396.44987781 222.24443054 391.07055664 C221.99543503 390.32184799 221.74643951 389.57313934 221.48989868 388.80174255 C221.00277167 387.33671744 220.51572464 385.87166573 220.02876282 384.40658569 C219.30704154 382.23884485 218.58223655 380.07215834 217.85649109 377.90576172 C214.65115626 368.3315122 211.5248137 358.73366912 208.4299469 349.12319946 C204.00621486 335.38755049 199.44269917 321.70828767 194.74833679 308.06274414 C189.67476504 293.31412844 184.75079506 278.5228088 179.93583679 263.68774414 C179.46376801 262.23336441 179.46376801 262.23336441 178.98216248 260.74960327 C178.66894043 259.78454865 178.35571838 258.81949402 178.03300476 257.82519531 C177.40822944 255.90045191 176.78339277 253.97572841 176.15849304 252.05102539 C175.85332764 251.11109238 175.54816223 250.17115936 175.23374939 249.20274353 C171.14036499 236.61018893 166.93871931 224.05387302 162.73387146 211.49819946 C161.00563837 206.33609194 159.28708981 201.17082244 157.57255554 196.00415039 C152.39876581 180.42075742 147.16190135 164.86201004 141.81587219 149.33682251 C137.89748035 137.95354145 134.04858176 126.54850542 130.24833679 115.12524414 C129.99211548 114.35514008 129.73589417 113.58503601 129.47190857 112.79159546 C127.22422649 106.0334359 124.98180409 99.27354264 122.74443054 92.51196289 C115.02427179 69.21133607 107.18345895 45.93252738 98.93583679 22.81274414 C98.64201111 21.97235596 98.34818542 21.13196777 98.04545593 20.26611328 C95.62938242 13.5949287 92.66144559 7.97273359 86.56083679 4.00024414 C80.21864771 1.61907481 74.13709192 1.71087049 67.41850281 1.72558594 C66.21113464 1.72047501 65.00376648 1.71536407 63.7598114 1.71009827 C60.46429197 1.69861585 57.16892929 1.69612287 53.8733952 1.69866157 C51.11507439 1.69973523 48.35677649 1.69483787 45.59846061 1.69005615 C39.08777347 1.67898172 32.57714402 1.67851203 26.06645203 1.68457031 C19.365248 1.69061027 12.66425393 1.67829393 5.96308571 1.65700024 C0.19470086 1.63934924 -5.57361736 1.63338835 -11.3420282 1.63663799 C-14.78067336 1.63844528 -18.2191687 1.63587034 -21.65778923 1.62192345 C-25.49450169 1.60956854 -29.33072981 1.61634563 -33.16743469 1.62792969 C-34.29651749 1.62028595 -35.42560028 1.61264221 -36.58889771 1.60476685 C-45.43312219 1.66370014 -52.60067593 2.93894729 -58.72846985 9.79150391 Z " fill="#F1F8FD" transform="translate(401.4391632080078,313.999755859375)"/>
<path d="M0 0 C4.24825094 3.54130009 6.12439532 6.92841211 8.0625 12.0625 C8.44027588 13.04561157 8.44027588 13.04561157 8.82568359 14.04858398 C10.3929392 18.17902856 11.78325183 22.35309398 13.125 26.5625 C14.93606571 32.1074913 16.61893412 36.18287078 21.375 39.8125 C25.99803389 41.90387247 29.56639811 42.35467763 34.5 41.1875 C39.24319895 39.36319271 41.18039742 36.83395692 43.53515625 32.41796875 C45.78955792 27.15769818 47.64552647 21.76245019 49.37744141 16.30883789 C51.39930446 10.08860712 53.71480134 3.10589658 59.4375 -0.5625 C62.71857689 -1.12268386 64.80754353 -0.99764265 68 0 C71.59663225 3.11708128 73.84035146 5.12530129 74.24951172 9.92993164 C74.30896973 11.16090576 74.36842773 12.39187988 74.4296875 13.66015625 C74.50343496 15.02541616 74.57767003 16.39064981 74.65234375 17.75585938 C74.76503205 19.89913237 74.87406086 22.04237778 74.97412109 24.1862793 C75.33479752 37.77976335 75.33479752 37.77976335 81.1875 49.6875 C84.07809369 52.06421036 87.04577086 54.26091701 90.1328125 56.375 C93.34832628 59.17343877 94.86010491 61.85040152 95.37719816 66.0996545 C95.37822729 67.27207122 95.37925642 68.44448794 95.38031673 69.65243244 C95.38497665 70.31089388 95.38963657 70.96935532 95.3944377 71.64777014 C95.40640441 73.85785596 95.39698624 76.06732891 95.38768005 78.27742004 C95.39185227 79.87646013 95.39732916 81.47549726 95.40399987 83.07452887 C95.41848832 87.47165667 95.41419915 91.86859757 95.40683305 96.26573575 C95.40211201 101.00683117 95.41460188 105.74788554 95.42485046 110.4889679 C95.4420654 119.7788159 95.4428728 129.06859635 95.43763756 138.35845617 C95.43359921 145.90881 95.43503543 153.45914382 95.44038582 161.00949669 C95.44113424 162.08334962 95.44188266 163.15720255 95.44265376 164.26359647 C95.44418522 166.44501896 95.44572356 168.62644144 95.44726873 170.80786391 C95.46100382 191.27543538 95.45554927 211.74296865 95.44408352 232.21053924 C95.43415267 250.93838201 95.44708748 269.66612596 95.47101771 288.39395348 C95.49539704 307.61793166 95.50501929 326.84186378 95.49836498 346.06585711 C95.49486984 356.86092323 95.49712418 367.65591335 95.51461601 378.45096779 C95.52932351 387.64183387 95.52999257 396.83257046 95.5125451 406.02343396 C95.50402028 410.71303298 95.50192163 415.40240054 95.51719666 420.09198761 C95.53100989 424.38595654 95.52632406 428.67949501 95.50695742 432.97343882 C95.5031867 434.52591007 95.50615022 436.07841551 95.51656907 437.63085637 C95.60751658 452.22112347 95.60751658 452.22112347 91 459 C84.8761519 464.67612474 78.14119502 466.24321927 69.84643555 466.2746582 C68.83024139 466.2823246 68.83024139 466.2823246 67.79351807 466.29014587 C65.57449272 466.30394006 63.35578163 466.30309252 61.13671875 466.30078125 C59.57884101 466.30467447 58.02096433 466.30901042 56.46308899 466.31376648 C53.20428013 466.32120737 49.94557964 466.32095346 46.68676758 466.31567383 C42.53446459 466.30988955 38.38260916 466.32679513 34.23038006 466.3500185 C31.01393592 466.36483599 27.79759749 466.36561659 24.58112526 466.36250877 C23.0514926 466.36301822 21.52185342 466.36818424 19.99225426 466.37832069 C11.58229916 466.42720875 3.91253334 466.15110011 -4 463 C-4 462.34 -4 461.68 -4 461 C-4.60457031 460.75894531 -5.20914063 460.51789063 -5.83203125 460.26953125 C-10.02543873 457.81393227 -11.39356231 453.40863076 -13 449 C-13.42823792 446.1112566 -13.42823792 446.1112566 -13.61547852 443.05195618 C-13.72147873 441.33761855 -13.72147873 441.33761855 -13.82962036 439.58864784 C-14.11613043 433.55398472 -14.31317633 427.5206774 -14.46484375 421.48120117 C-14.50249851 420.07621524 -14.54044065 418.67123699 -14.5786438 417.26626587 C-14.68074664 413.4814859 -14.77884981 409.69661202 -14.87617874 405.91170669 C-14.98014008 401.89585375 -15.08782758 397.88010056 -15.19506836 393.86433411 C-15.39835771 386.23076425 -15.59828057 378.59711006 -15.79700756 370.96342021 C-16.01929643 362.43152511 -16.24558886 353.89973774 -16.47212791 345.36795461 C-16.75034867 334.88394678 -17.0272982 324.39990503 -17.30249023 313.91581726 C-17.32186793 313.17807705 -17.34124563 312.44033684 -17.36121053 311.68024087 C-17.45848821 307.96851427 -17.55465295 304.25676335 -17.64888477 300.54495811 C-17.68693551 299.0493448 -17.72501994 297.55373234 -17.76313782 296.05812073 C-17.78207763 295.31495283 -17.80101744 294.57178493 -17.82053119 293.80609679 C-17.93832581 289.23787249 -18.06694269 284.67008397 -18.20302731 280.10236967 C-19.06721207 250.97899351 -19.19795205 221.86530823 -19.23828125 192.73046875 C-19.2423448 190.19598189 -19.24646208 187.66149512 -19.25063133 185.12700844 C-19.26738187 174.59719135 -19.28203585 164.06737518 -19.28938007 153.53754711 C-19.29128828 150.84689012 -19.29320896 148.15623313 -19.29516602 145.46557617 C-19.29564976 144.79725902 -19.2961335 144.12894187 -19.2966319 143.44037268 C-19.30499691 132.52833225 -19.33049277 121.61639903 -19.36274669 110.70440575 C-19.39585045 99.41087301 -19.41349639 88.1173932 -19.41702431 76.82380563 C-19.41936666 70.51775506 -19.42822912 64.21187821 -19.45348549 57.90587425 C-19.47676793 52.00302604 -19.48099871 46.1004664 -19.47072411 40.19758415 C-19.47022946 38.03972155 -19.47652866 35.88184456 -19.49028015 33.72402573 C-19.64049672 8.75367956 -19.64049672 8.75367956 -12.4375 1.375 C-7.90112313 -1.18398182 -5.03970177 -1.21647974 0 0 Z M-13.73828125 5.19921875 C-17.00086785 9.8557278 -17.32621441 14.4561146 -17.4074707 19.99414062 C-17.426378 20.80277054 -17.4452853 21.61140045 -17.46476555 22.4445343 C-17.52487402 25.18166955 -17.56968916 27.9188046 -17.61328125 30.65625 C-17.65090485 32.64913076 -17.68861194 34.64200995 -17.72639465 36.6348877 C-18.22387031 64.82389227 -18.19889277 93.02043087 -18.18822432 121.21296644 C-18.18749328 123.52123111 -18.18724781 125.82949538 -18.1871376 128.13776016 C-18.18318458 182.57680424 -17.58685307 236.97683277 -16.17114258 291.39929199 C-15.98607118 298.51382371 -15.80656197 305.6284927 -15.62695312 312.74316406 C-14.87009344 342.64440949 -14.09073646 372.54506008 -13.23769474 402.44373035 C-13.08459205 407.84951673 -12.94222243 413.25536589 -12.81488323 418.66182041 C-12.74337627 421.66301194 -12.66550782 424.66401665 -12.58632088 427.66501427 C-12.53747775 429.60692055 -12.497573 431.54904552 -12.45811462 433.49116516 C-12.17211499 443.96685322 -11.60971875 452.68552961 -3.625 460.25 C1.49148089 463.66098726 6.2510102 464.25563463 12.31542969 464.30639648 C13.02200714 464.31472 13.72858459 464.32304352 14.45657349 464.33161926 C16.77839777 464.35559327 19.0999403 464.36447655 21.421875 464.37109375 C23.04844236 464.38007097 24.67500893 464.389193 26.30157471 464.39845276 C29.70758056 464.41491203 33.11348849 464.42263704 36.51953125 464.42553711 C40.86153778 464.43091213 45.20261014 464.46856811 49.54435349 464.51428127 C52.90406566 464.54418194 56.2635566 464.5512635 59.6233902 464.55226326 C61.22283447 464.55644124 62.8222809 464.56877712 64.42159271 464.58978081 C77.5946165 464.89028596 77.5946165 464.89028596 89 459 C94.37208678 452.23659632 93.55899646 444.61204311 93.50793457 436.38595581 C93.51254521 434.77480001 93.51889922 433.16364842 93.52684355 431.55250561 C93.54353738 427.13124562 93.53529033 422.71033111 93.52289867 418.28906989 C93.51385088 413.51874946 93.52781647 408.74848855 93.53881836 403.97817993 C93.55661022 394.63611584 93.55276085 385.29418025 93.5411678 375.95211111 C93.53213746 368.36125309 93.53090774 360.7704311 93.53526306 353.17956924 C93.53587599 352.0995704 93.53648893 351.01957156 93.53712043 349.90684549 C93.53839932 347.71293487 93.53969617 345.51902426 93.5410108 343.32511367 C93.55241827 322.7507856 93.53929968 302.17652882 93.51780933 281.60221244 C93.49993314 263.94099007 93.50304645 246.27987283 93.52148438 228.61865234 C93.54287938 208.11528483 93.55132497 187.61197976 93.53903532 167.10860264 C93.5377611 164.92333485 93.53650362 162.73806704 93.53526306 160.55279922 C93.53464596 159.4775647 93.53402886 158.40233017 93.53339306 157.29451277 C93.52993642 149.71002774 93.53577514 142.12558227 93.54518127 134.54110336 C93.55638718 125.30225035 93.55339067 116.06353332 93.5320583 106.82469593 C93.52152969 102.10913122 93.51745689 97.39379343 93.53065491 92.67823029 C93.54254693 88.3641361 93.5360693 84.05047982 93.5147447 79.73642553 C93.51026511 78.1733035 93.51257523 76.6101447 93.52224785 75.04704617 C93.53436764 72.92632089 93.52198445 70.80710622 93.50336456 68.68646049 C93.50239045 66.91790901 93.50239045 66.91790901 93.50139666 65.11362922 C92.89525499 61.34954269 91.62663146 59.71105502 89 57 C86.84211198 55.52408844 86.84211198 55.52408844 84.5625 54.3125 C78.83634475 50.68058934 76.42131064 45.60355981 74.45849609 39.24609375 C73.87177389 36.37184225 73.83531384 33.62866594 73.7890625 30.6953125 C73.76070312 29.47199219 73.73234375 28.24867188 73.703125 26.98828125 C73.65120255 24.42071625 73.60688383 21.85298579 73.5703125 19.28515625 C73.539375 18.05925781 73.5084375 16.83335937 73.4765625 15.5703125 C73.4468335 13.89606201 73.4468335 13.89606201 73.41650391 12.18798828 C72.9440932 8.57208032 71.85001031 6.12556475 70 3 C67.70719933 1.26063397 65.95746504 0.99167794 63.125 0.4375 C59.08541851 1.16462467 58.04567406 2.58736149 55.51171875 5.67993164 C52.55308997 10.22060497 51.09482855 15.37516849 49.4375 20.5 C43.95318973 37.27669152 43.95318973 37.27669152 37.1875 41.9375 C31.63313694 43.78895435 27.14949134 43.76143701 21.8125 41.5 C13.59147709 36.75480078 11.37394601 26.91772423 8.68359375 18.421875 C6.46335228 11.68886366 4.07522474 5.05014983 -2 1 C-7.65562459 0.14632082 -9.99959293 1.23518484 -13.73828125 5.19921875 Z " fill="#F2F9FD" transform="translate(675,319)"/>
<path d="M0 0 C2.38178815 3.28333093 3.49006577 6.2253946 4.24609375 10.18359375 C4.44138672 11.18277832 4.63667969 12.18196289 4.83789062 13.21142578 C5.03576172 14.27603027 5.23363281 15.34063477 5.4375 16.4375 C5.75944336 18.09628174 5.75944336 18.09628174 6.08789062 19.78857422 C7.12731557 25.18695257 8.1119138 30.59229462 9.03515625 36.01171875 C11.42115948 49.97199365 13.84025958 63.11009253 22 75 C22 75.66 22 76.32 22 77 C22.66 77 23.32 77 24 77 C24.7528125 77.76441406 25.505625 78.52882813 26.28125 79.31640625 C37.23574608 90.12924937 57.4623115 92.77676912 71.92578125 96.05078125 C72.70677185 96.22762451 73.48776245 96.40446777 74.29241943 96.58666992 C78.2223485 97.47281558 82.15484963 98.34460298 86.09228516 99.19677734 C86.83359177 99.36026169 87.57489838 99.52374603 88.33866882 99.69218445 C89.73111675 99.99926575 91.12494368 100.30018931 92.52033997 100.59358215 C96.70771529 101.52469087 100.24139601 102.9425024 104 105 C104 106.98 104 108.96 104 111 C95.82724024 114.21641673 87.61058428 116.45713037 79.0625 118.4375 C76.49210831 119.04784366 73.9217961 119.65852216 71.3515625 120.26953125 C67.87006553 121.09031727 64.38814308 121.90918015 60.90527344 122.72412109 C36.67199613 128.07532175 36.67199613 128.07532175 18.33203125 143.71484375 C9.34145955 159.1385518 6.82617536 178.03773065 4.51928711 195.47338867 C3.62488281 201.75252381 2.27970884 206.54013788 -1 212 C-3.375 213.6875 -3.375 213.6875 -6 214 C-9.125 213.125 -9.125 213.125 -12 211 C-14.28043698 205.7755031 -15.60603259 200.72509801 -16.46484375 195.08984375 C-16.58428848 194.35987686 -16.70373322 193.62990997 -16.82679749 192.87782288 C-17.20482283 190.56555884 -17.57243488 188.25184304 -17.9375 185.9375 C-21.6910206 157.44786562 -21.6910206 157.44786562 -38 135 C-46.16681652 129.72717597 -58.22520862 125 -68 125 C-68 124.34 -68 123.68 -68 123 C-69.14436523 122.87544434 -70.28873047 122.75088867 -71.46777344 122.62255859 C-75.90500997 122.06555934 -80.1792877 121.11656904 -84.515625 120.0390625 C-85.68300201 119.75221085 -85.68300201 119.75221085 -86.8739624 119.45956421 C-88.50480007 119.05688142 -90.1350247 118.65170829 -91.76464844 118.24414062 C-94.25474733 117.62381737 -96.74823648 117.01868638 -99.2421875 116.4140625 C-100.83356229 116.01915067 -102.42471642 115.62334832 -104.015625 115.2265625 C-104.75733948 115.0483194 -105.49905396 114.87007629 -106.26324463 114.68643188 C-110.10980298 113.7077551 -113.03606208 112.68721372 -116 110 C-115.25 105.25 -115.25 105.25 -113 103 C-110.77914429 102.31306458 -110.77914429 102.31306458 -107.97802734 101.69067383 C-106.92868011 101.45314896 -105.87933289 101.21562408 -104.79818726 100.97090149 C-103.08437363 100.59278572 -103.08437363 100.59278572 -101.3359375 100.20703125 C-98.90874446 99.65347563 -96.48166488 99.09942227 -94.0546875 98.54492188 C-90.23641107 97.68100881 -86.41721922 96.82188478 -82.59570312 95.97241211 C-53.69929339 90.6023822 -53.69929339 90.6023822 -31.92578125 72.73828125 C-22.67247692 56.4518696 -20.53384601 37.46059708 -17.78637695 19.21630859 C-15.26180235 2.94635176 -15.26180235 2.94635176 -10 -1 C-5.95205481 -2.34931506 -3.92892826 -1.54350753 0 0 Z M-13 4 C-14.05000854 6.97747342 -14.05000854 6.97747342 -14.60546875 10.33203125 C-14.84442871 11.57807129 -15.08338867 12.82411133 -15.32958984 14.10791016 C-16.17971261 19.04332789 -16.98085409 23.98347582 -17.73583984 28.93432617 C-24.26495915 71.42888634 -24.26495915 71.42888634 -38.96484375 82.671875 C-49.29122814 89.41078228 -60.15482354 92.22776509 -72 95 C-73.78905762 95.42031494 -73.78905762 95.42031494 -75.61425781 95.84912109 C-80.85051182 97.07642969 -86.08704197 98.30153116 -91.32958984 99.50170898 C-103.45958757 101.85213978 -103.45958757 101.85213978 -115 106 C-114.72382467 107.94074861 -114.72382467 107.94074861 -114 110 C-111.16091444 111.89272371 -109.57771088 112.4898654 -106.33935547 113.23339844 C-105.39341522 113.45413025 -104.44747498 113.67486206 -103.47286987 113.90228271 C-101.9355571 114.2522934 -101.9355571 114.2522934 -100.3671875 114.609375 C-98.175742 115.12222815 -95.98433713 115.63525492 -93.79296875 116.1484375 C-90.35606412 116.94572539 -86.91850514 117.74000126 -83.47998047 118.53027344 C-47.76477874 126.76465488 -47.76477874 126.76465488 -36 135 C-35.01 135.33 -34.02 135.66 -33 136 C-33 136.66 -33 137.32 -33 138 C-32.34 138 -31.68 138 -31 138 C-30.72929688 138.55042969 -30.45859375 139.10085938 -30.1796875 139.66796875 C-29.35938649 141.28955717 -28.5079134 142.89559761 -27.6328125 144.48828125 C-19.76507924 159.22499407 -17.6787187 175.56117079 -15.07275391 191.85961914 C-14.65636342 194.44413636 -14.22021777 197.02470459 -13.78125 199.60546875 C-13.6613269 200.39084518 -13.54140381 201.17622162 -13.41784668 201.98539734 C-12.63619087 206.49365491 -11.79879598 209.29135146 -8 212 C-4.89072953 212.32908167 -4.89072953 212.32908167 -2 211 C0.67067707 206.62561514 1.69061769 202.45455991 2.5625 197.4375 C2.68761963 196.73351074 2.81273926 196.02952148 2.94165039 195.30419922 C3.68091254 191.08787881 4.3238328 186.86145693 4.9375 182.625 C7.62461662 164.89443539 10.80009728 146.53312284 25.05859375 134.22265625 C39.47481633 123.82710492 59.14374937 121.22151671 76.0859375 117.390625 C77.2510083 117.12628662 78.4160791 116.86194824 79.61645508 116.58959961 C81.86207406 116.08320179 84.10925583 115.58366998 86.3581543 115.09204102 C91.85898589 113.86009966 96.98069228 112.60725151 102 110 C103.04289755 107.93109581 103.04289755 107.93109581 103 106 C100.27957707 104.18638471 98.9834444 103.61187992 95.921875 102.95019531 C95.10251465 102.769505 94.2831543 102.5888147 93.43896484 102.40264893 C92.10792725 102.11825958 92.10792725 102.11825958 90.75 101.828125 C88.84112592 101.40634012 86.93227248 100.98446182 85.0234375 100.5625 C82.0386777 99.91064476 79.05334762 99.2615471 76.06738281 98.61523438 C65.74557194 96.3724191 55.51461356 94.02855132 45.4296875 90.8671875 C44.66148682 90.62760315 43.89328613 90.3880188 43.10180664 90.14117432 C37.19557278 88.22318588 32.04409244 85.65116314 27 82 C25.63875 81.13375 25.63875 81.13375 24.25 80.25 C9.58495808 65.58495808 7.79638956 40.89951661 4.83813477 21.50878906 C3.41626266 9.61023818 3.41626266 9.61023818 -3 0 C-8.00059118 -0.7447689 -9.87468311 0.12243265 -13 4 Z " fill="#E8F4FB" transform="translate(712,123)"/>
<path d="M0 0 C3.125 0.3125 3.125 0.3125 4.734375 1.9765625 C6.35032026 4.6909874 6.90020403 6.89586114 7.5 10 C7.7475 11.22847656 7.995 12.45695312 8.25 13.72265625 C8.73109422 16.21946718 9.20025865 18.71817413 9.6640625 21.21826172 C13.46298404 46.46383789 13.46298404 46.46383789 28.5625 66 C36.71366404 70.56040962 45.96502954 72.79583468 54.9609375 75.04296875 C56.16967529 75.34605957 57.37841309 75.64915039 58.6237793 75.96142578 C61.05663746 76.56396435 63.49300884 77.15251391 65.93286133 77.72607422 C67.06232178 78.00338379 68.19178223 78.28069336 69.35546875 78.56640625 C70.37020264 78.80689697 71.38493652 79.0473877 72.43041992 79.29516602 C75.5119325 80.45858569 77.05191731 81.77655248 79.125 84.3125 C79.3125 86.375 79.3125 86.375 78.125 88.3125 C70.75696034 92.13737941 62.4687436 93.67651947 54.46313477 95.68212891 C33.7756199 100.68440937 33.7756199 100.68440937 18.6015625 114.7109375 C13.80941245 124.3823676 11.86289166 135.25614768 9.90625 145.79296875 C9.69355469 146.92009277 9.48085938 148.0472168 9.26171875 149.20849609 C8.84214973 151.45981852 8.43810675 153.71409819 8.05078125 155.97119141 C7.85871094 157.00808105 7.66664063 158.0449707 7.46875 159.11328125 C7.30568359 160.04309814 7.14261719 160.97291504 6.97460938 161.9309082 C5.92925326 164.86120962 4.80587814 165.7952062 2.125 167.3125 C-0.4375 167.3125 -0.4375 167.3125 -2.875 166.3125 C-5.40585057 162.78427954 -6.39867233 159.73775164 -7.0859375 155.48046875 C-7.37114258 153.79884644 -7.37114258 153.79884644 -7.66210938 152.08325195 C-7.95311523 150.30954224 -7.95311523 150.30954224 -8.25 148.5 C-11.91138637 124.56012968 -11.91138637 124.56012968 -25.88354492 105.70458984 C-35.2007022 99.19160335 -47.42183596 97.38695807 -58.25952148 94.66699219 C-60.74525441 94.03990902 -63.22615654 93.39599346 -65.70703125 92.75 C-66.46748245 92.56445557 -67.22793365 92.37891113 -68.01142883 92.18774414 C-72.35267808 91.04665405 -75.03482317 89.83560412 -77.875 86.3125 C-77.40234375 83.96875 -77.40234375 83.96875 -75.875 81.3125 C-72.98175664 80.20797443 -70.43490912 79.46417507 -67.4375 78.8125 C-65.71089431 78.39601236 -63.98433308 77.97934033 -62.2578125 77.5625 C-61.36868164 77.35625 -60.47955078 77.15 -59.56347656 76.9375 C-36.64189235 72.19183605 -36.64189235 72.19183605 -19.51171875 57.30859375 C-12.45458549 44.74558562 -10.4198204 29.08955573 -8.30639648 15.05395508 C-6.04176081 0.65671313 -6.04176081 0.65671313 0 0 Z M-2.875 2.3125 C-5.37672567 8.38307161 -6.70715798 14.15846117 -7.75 20.625 C-13.80099888 55.62274902 -13.80099888 55.62274902 -24.875 65.3125 C-25.98875 66.3334375 -25.98875 66.3334375 -27.125 67.375 C-35.91315532 73.56665489 -46.55674726 75.47105642 -56.8125 78 C-59.22857296 78.60251496 -61.64404609 79.2073244 -64.05897522 79.81440735 C-65.55285827 80.18924978 -67.04749627 80.56109918 -68.54295349 80.92961121 C-72.30476439 81.84787246 -72.30476439 81.84787246 -75.875 83.3125 C-75.545 84.9625 -75.215 86.6125 -74.875 88.3125 C-73.72088623 88.61430176 -72.56677246 88.91610352 -71.37768555 89.22705078 C-67.04432367 90.36435549 -62.7162408 91.52075704 -58.3894043 92.68261719 C-56.52585516 93.18025031 -54.66096282 93.67288415 -52.79467773 94.16015625 C-42.4348285 96.86875867 -33.02353121 99.56026792 -23.875 105.3125 C-22.78119019 105.83553711 -22.78119019 105.83553711 -21.6652832 106.36914062 C-19.29390703 107.61869709 -18.89637556 108.87008019 -17.875 111.3125 C-17.49601563 112.00085938 -17.11703125 112.68921875 -16.7265625 113.3984375 C-10.05620524 125.84693864 -7.97823854 139.3850789 -5.625 153.15795898 C-5.42648437 154.29563721 -5.22796875 155.43331543 -5.0234375 156.60546875 C-4.84989746 157.6318042 -4.67635742 158.65813965 -4.49755859 159.71557617 C-3.98179811 162.52653563 -3.98179811 162.52653563 -1.875 165.3125 C0.625 165.8125 0.625 165.8125 3.125 165.3125 C5.40120186 161.8981972 5.75376077 159.61328803 6.421875 155.58203125 C6.65645396 154.21485971 6.89192032 152.8478402 7.12817383 151.48095703 C7.24947662 150.76860901 7.37077942 150.05626099 7.49575806 149.32232666 C13.47525699 114.67712815 13.47525699 114.67712815 26.125 104.3125 C37.14548662 97.17344263 50.69723616 94.85355865 63.25976562 91.83007812 C64.46955078 91.53423828 65.67933594 91.23839844 66.92578125 90.93359375 C68.02059814 90.6698999 69.11541504 90.40620605 70.2434082 90.13452148 C72.75810022 89.4171642 74.84966417 88.5805562 77.125 87.3125 C76.795 85.6625 76.465 84.0125 76.125 82.3125 C75.23417725 82.10157715 74.34335449 81.8906543 73.42553711 81.67333984 C70.04042629 80.86599475 66.65812941 80.04832431 63.27709961 79.22412109 C61.82851905 78.87311458 60.3790008 78.52594991 58.9284668 78.18310547 C27.12085603 70.65350098 27.12085603 70.65350098 18.42578125 57.80078125 C10.94504173 44.29022651 8.70058928 28.21197664 6.46826172 13.14550781 C6.32018066 12.16936523 6.17209961 11.19322266 6.01953125 10.1875 C5.89425049 9.31867188 5.76896973 8.44984375 5.63989258 7.5546875 C5.20319079 5.04584755 5.20319079 5.04584755 3.125 2.3125 C0.04134129 2.0622843 0.04134129 2.0622843 -2.875 2.3125 Z " fill="#EAF5FB" transform="translate(837.875,268.6875)"/>
<path d="M0 0 C0.99 0 1.98 0 3 0 C5.80923321 6.05850086 8.20182731 12.1536434 10.3203125 18.484375 C10.62038712 19.36933655 10.92046173 20.2542981 11.22962952 21.16607666 C12.19859119 24.02610239 13.16178975 26.88803278 14.125 29.75 C15.13940389 32.74882439 16.15524865 35.74715833 17.17112732 38.7454834 C17.8446138 40.73367582 18.51759988 42.72203782 19.19007874 44.71057129 C21.82052329 52.48619337 24.49495565 60.24565126 27.1875 68 C31.30109818 79.87731443 35.28368138 91.79603736 39.23217773 103.72900391 C42.05278107 112.23931401 44.9319815 120.72650462 47.875 129.1953125 C48.52645018 131.07646866 49.17781794 132.95765336 49.82910156 134.83886719 C50.78151779 137.58912718 51.73701483 140.33809363 52.70300293 143.08361816 C53.59654416 145.62332327 54.47890595 148.16667653 55.359375 150.7109375 C55.7615625 151.83823776 55.7615625 151.83823776 56.171875 152.98831177 C57.58808583 157.11713913 58.39624284 160.56905269 58 165 C57 166 57 166 55.1590414 166.12304783 C53.94365736 166.12166514 53.94365736 166.12166514 52.70372009 166.12025452 C51.77678848 166.12162918 50.84985687 166.12300385 49.89483643 166.12442017 C48.86985046 166.12082489 47.8448645 166.11722961 46.78881836 166.11352539 C45.17926018 166.11374443 45.17926018 166.11374443 43.53718567 166.1139679 C39.97138484 166.11326824 36.40563551 166.10547338 32.83984375 166.09765625 C30.37504607 166.09579226 27.91024801 166.09436827 25.44544983 166.09336853 C18.94346095 166.08954187 12.44149425 166.07971032 5.93951416 166.06866455 C-0.68940817 166.05791748 -7.31833693 166.05387159 -13.94726562 166.04882812 C-26.96485324 166.03808819 -39.98242544 166.02120097 -53 166 C-54.09812616 162.22804863 -53.70688554 160.26564508 -52.4362793 156.51416016 C-51.88395882 154.85799179 -51.88395882 154.85799179 -51.32048035 153.16836548 C-50.90921402 151.9706955 -50.49794769 150.77302551 -50.07421875 149.5390625 C-49.64741189 148.27174599 -49.22155278 147.00410995 -48.79658508 145.73617554 C-47.66705655 142.37436852 -46.52506246 139.0169269 -45.38031006 135.66027832 C-44.2588482 132.36574329 -43.14821839 129.0675692 -42.03710938 125.76953125 C-40.484622 121.16443941 -38.92859375 116.56057302 -37.36820984 111.95815086 C-34.45224878 103.35582015 -31.56809371 94.74313907 -28.69921875 86.125 C-28.48889071 85.49320076 -28.27856266 84.86140152 -28.06186104 84.21045685 C-27.06097177 81.20338516 -26.06062632 78.196133 -25.06057739 75.18878174 C-23.64926479 70.94546307 -22.2350142 66.70312717 -20.8203125 62.4609375 C-20.36749191 61.1025461 -19.91469193 59.74414783 -19.46191406 58.38574219 C-12.97460938 38.92382812 -6.48730469 19.46191406 0 0 Z M1 2 C0.6257489 3.1227533 0.2514978 4.24550659 -0.13409424 5.40228271 C-5.56368001 21.69104004 -10.99326579 37.97979736 -16.42285156 54.26855469 C-16.77793667 55.33381189 -17.13302177 56.3990691 -17.49886703 57.49660683 C-18.21259994 59.63780174 -18.92633742 61.77899514 -19.6400795 63.920187 C-21.40922868 69.2275681 -23.17829939 74.53497532 -24.94720459 79.84243774 C-27.8604448 88.58316111 -30.77379144 97.32384713 -33.69097519 106.06325531 C-34.78222888 109.33250088 -35.87309673 112.60187514 -36.96395111 115.87125397 C-37.45401506 117.33960312 -37.94428332 118.80788411 -38.43479156 120.2760849 C-47.38412143 141.8885658 -47.38412143 141.8885658 -52 164 C-39.88934718 165.02379723 -27.84681453 165.14728597 -15.69921875 165.1328125 C-13.68520598 165.13348759 -11.67119328 165.13445932 -9.65718079 165.13571167 C-5.47107148 165.13717459 -1.28498373 165.1350768 2.90112305 165.13037109 C8.27347904 165.12462636 13.64578558 165.12799135 19.01813984 165.13394356 C23.16068398 165.13754648 27.30321625 165.13641266 31.44576073 165.13381577 C33.42857049 165.13314822 35.41138132 165.1339689 37.39418983 165.13629532 C40.14864625 165.13882256 42.90302045 165.13498243 45.6574707 165.12939453 C46.47763168 165.13141876 47.29779266 165.13344299 48.14280701 165.13552856 C52.20253361 165.21771284 52.20253361 165.21771284 56 164 C56.31645571 158.92434704 55.18282317 154.8189295 53.5 150.09765625 C53.2326857 149.32366486 52.9653714 148.54967346 52.68995667 147.75222778 C51.80167842 145.18599207 50.90074545 142.62438346 50 140.0625 C49.37130275 138.25271116 48.74363755 136.44256351 48.11694336 134.63208008 C47.12477672 131.76671929 46.13172751 128.90168742 45.13523865 126.03782654 C42.64537633 118.88146078 40.19002297 111.71389183 37.75390625 104.5390625 C37.40315033 103.50605515 37.05239441 102.47304779 36.69100952 101.40873718 C35.64782517 98.33510936 34.60513305 95.26131488 33.5625 92.1875 C29.55054416 80.36363738 25.51910206 68.54823047 21.36756897 56.77250671 C19.52291541 51.53267216 17.74665054 46.27322524 16 41 C14.12301544 35.37572202 12.23094613 29.75662539 10.3293457 24.140625 C9.73025575 22.36680705 9.13394123 20.59204952 8.5402832 18.81640625 C7.67833466 16.23978313 6.80698292 13.66651401 5.93359375 11.09375 C5.66896835 10.29594116 5.40434296 9.49813232 5.13169861 8.67614746 C4.02301121 4.5936898 4.02301121 4.5936898 1 2 Z " fill="#F0F8FD" transform="translate(416,426)"/>
<path d="M0 0 C2.5625 0.5 2.5625 0.5 4.14477539 2.69458008 C5.56352328 5.50202488 6.2420668 7.80458435 6.80859375 10.88671875 C7.00646484 11.90830078 7.20433594 12.92988281 7.40820312 13.98242188 C7.79911817 16.09955584 8.1897486 18.21674238 8.58007812 20.33398438 C10.45756629 30.02522588 12.95885618 41.23292901 21.19921875 47.5078125 C24.92732114 49.71609615 28.34815967 50.87929879 32.5 52 C33.23492676 52.20866699 33.96985352 52.41733398 34.72705078 52.63232422 C38.43860946 53.67741891 42.16322947 54.66016338 45.90234375 55.6015625 C46.58240479 55.77494141 47.26246582 55.94832031 47.96313477 56.12695312 C49.83447234 56.59901058 51.71011151 57.05391885 53.5859375 57.5078125 C57.97782258 58.97177419 57.97782258 58.97177419 59.5625 61.5 C59.5625 63.5625 59.5625 63.5625 58.5625 65.5 C56.4375 66.625 56.4375 66.625 53.5625 67.5 C52.48355469 67.83128906 51.40460938 68.16257812 50.29296875 68.50390625 C46.90535297 69.40845287 43.51854071 70.19797449 40.0949707 70.94824219 C29.99370751 73.17445262 22.19509213 75.44536343 15.8515625 84.14453125 C12.47000186 90.32356479 10.83811058 96.91835527 9.375 103.75 C9.10913086 104.93335938 9.10913086 104.93335938 8.83789062 106.140625 C8.04686101 109.75676037 7.5625 112.75689324 7.5625 116.5 C6.9025 116.5 6.2425 116.5 5.5625 116.5 C5.2325 118.15 4.9025 119.8 4.5625 121.5 C2.25 122.125 2.25 122.125 -0.4375 122.5 C-4.29378676 119.92914216 -4.18593684 118.51659873 -5.15625 114.06640625 C-5.30026245 113.43266586 -5.4442749 112.79892548 -5.59265137 112.14598083 C-6.05240883 110.12052116 -6.49661751 108.09214607 -6.9375 106.0625 C-7.51864252 103.39412423 -8.11446724 100.72962405 -8.71875 98.06640625 C-8.97720703 96.87990479 -9.23566406 95.69340332 -9.50195312 94.47094727 C-10.43819904 91.49778012 -11.16165055 90.48979871 -13.4375 88.5 C-13.56125 87.71625 -13.685 86.9325 -13.8125 86.125 C-14.72559189 82.29001405 -16.38643518 80.99066516 -19.4375 78.5 C-26.68375588 74.19073295 -34.26014936 71.90927424 -42.375 69.8125 C-44.59372414 69.23010084 -46.81124001 68.64307324 -49.02734375 68.05078125 C-50.47935181 67.67433472 -50.47935181 67.67433472 -51.96069336 67.2902832 C-54.4375 66.5 -54.4375 66.5 -57.4375 64.5 C-57.625 61.875 -57.625 61.875 -57.4375 59.5 C-50.32546278 56.98740272 -43.16205056 55.14532865 -35.81054688 53.48242188 C-26.72305789 51.31739944 -19.74674512 48.41631675 -14.4375 40.5 C-10.65670377 32.90715392 -9.00199101 24.81776429 -7.3125 16.5625 C-6.81572807 14.15634059 -6.31338584 11.7513225 -5.8046875 9.34765625 C-5.58925293 8.29586182 -5.37381836 7.24406738 -5.15185547 6.16040039 C-4.23277253 2.73755461 -3.65402959 0.74954453 0 0 Z M-1.4375 1.5 C-4.40621338 7.56575732 -5.53784707 13.57454378 -6.75 20.1875 C-11.16340856 42.55798572 -11.16340856 42.55798572 -20.38232422 49.22583008 C-27.37943408 53.5639052 -35.48629463 55.4337235 -43.4375 57.1875 C-45.29213533 57.60600139 -47.14632715 58.02647465 -49 58.44921875 C-49.80566406 58.62799561 -50.61132812 58.80677246 -51.44140625 58.9909668 C-53.49153742 59.43854945 -53.49153742 59.43854945 -55.4375 60.5 C-55.4375 61.82 -55.4375 63.14 -55.4375 64.5 C-49.23470228 66.44268864 -43.04281739 68.36819492 -36.75 70 C-26.76331386 72.70381895 -17.13409638 75.7698173 -11.3125 84.8125 C-7.72090333 91.77540875 -6.54952769 99.42682329 -5.17333984 107.08325195 C-4.98852051 108.09476318 -4.80370117 109.10627441 -4.61328125 110.1484375 C-4.45770752 111.05770996 -4.30213379 111.96698242 -4.1418457 112.90380859 C-3.35112381 115.81837936 -2.09223009 117.9880274 -0.4375 120.5 C1.5425 120.005 1.5425 120.005 3.5625 119.5 C5.67102613 112.45730865 7.59946961 105.5474787 8.9375 98.3125 C10.93059098 88.85591938 14.61946049 80.6780606 22.69921875 74.98828125 C28.26598038 72.09478032 34.27141781 70.6025617 40.32861328 69.06738281 C42.557401 68.50129509 44.77703256 67.90768789 46.99609375 67.3046875 C50.51330199 66.35059891 54.03589968 65.41886675 57.5625 64.5 C57.5625 63.18 57.5625 61.86 57.5625 60.5 C55.60445127 59.93651009 53.64603379 59.37430164 51.6875 58.8125 C51.06979736 58.63315918 50.45209473 58.45381836 49.81567383 58.26904297 C46.20458069 57.22761317 42.58746207 56.24411669 38.94140625 55.33203125 C20.45264525 50.63293268 20.45264525 50.63293268 14.49609375 42.7734375 C12.44728779 39.30495388 11.13328133 35.89949378 10 32.0625 C9.78875488 31.37164307 9.57750977 30.68078613 9.35986328 29.96899414 C7.59351041 24.01279811 6.37832833 18.02808208 5.3359375 11.90234375 C4.4772878 8.1251524 3.18115666 5.01007038 1.5625 1.5 C0.5725 1.5 -0.4175 1.5 -1.4375 1.5 Z " fill="#EBF5FC" transform="translate(175.4375,452.5)"/>
<path d="M0 0 C0.33 0.66 0.66 1.32 1 2 C0.01023003 4.00508239 -0.99297017 6.00353038 -2 8 C-3.3063323 11.55127794 -4.46256636 15.14941106 -5.625 18.75 C-6.2409233 20.64103723 -6.85805106 22.53168271 -7.4765625 24.421875 C-7.8799585 25.66855957 -7.8799585 25.66855957 -8.29150391 26.94042969 C-9 29 -9 29 -10 31 C-10.66 31 -11.32 31 -12 31 C-10.21738524 24.63575258 -8.15635098 18.37068325 -6 12.125 C-5.7510498 11.38773682 -5.50209961 10.65047363 -5.24560547 9.89086914 C-3.93065675 6.12901356 -2.67508638 3.04131844 0 0 Z " fill="#A3D5F3" transform="translate(732,323)"/>
<path d="M0 0 C2.875 -0.1875 2.875 -0.1875 6 0 C8.29013653 3.4352048 8.17842973 4.985331 8 9 C7.71125 8.401875 7.4225 7.80375 7.125 7.1875 C5.04797494 3.02297418 5.04797494 3.02297418 1 1 C-0.32 7.6 -1.64 14.2 -3 21 C-3.33 21 -3.66 21 -4 21 C-3.66569599 13.43781278 -3.12892533 6.93805182 0 0 Z " fill="#97CEEF" transform="translate(835,271)"/>
<path d="M0 0 C1.32 0.33 2.64 0.66 4 1 C4.33 2.98 4.66 4.96 5 7 C4.01 6.01 3.02 5.02 2 4 C1.01 4.495 1.01 4.495 0 5 C-0.68729254 7.11846285 -0.68729254 7.11846285 -1.125 9.5625 C-1.29257813 10.38878906 -1.46015625 11.21507812 -1.6328125 12.06640625 C-1.75398437 12.70449219 -1.87515625 13.34257812 -2 14 C-2.33 14 -2.66 14 -3 14 C-3.34615998 8.34605369 -2.43425238 4.96993194 0 0 Z " fill="#A9D8F2" transform="translate(174,454)"/>
<path d="M0 0 C0.33 0.66 0.66 1.32 1 2 C0.443125 2.721875 -0.11375 3.44375 -0.6875 4.1875 C-4.12707769 9.27906124 -5.92233123 15.26086578 -8 21 C-9.32093161 17.03720518 -8.31513114 15.47631854 -6.8125 11.625 C-6.38582031 10.50351562 -5.95914062 9.38203125 -5.51953125 8.2265625 C-4.01652516 5.03508942 -2.31400626 2.64599431 0 0 Z " fill="#A5D6F3" transform="translate(344,323)"/>
<path d="M0 0 C2.875 -0.1875 2.875 -0.1875 6 0 C8.29013653 3.4352048 8.17842973 4.985331 8 9 C7.71125 8.401875 7.4225 7.80375 7.125 7.1875 C5.04797494 3.02297418 5.04797494 3.02297418 1 1 C0.34 2.32 -0.32 3.64 -1 5 C-0.67 3.35 -0.34 1.7 0 0 Z " fill="#8EC9EC" transform="translate(835,271)"/>
<path d="M0 0 C0.33 0 0.66 0 1 0 C1 3.3 1 6.6 1 10 C0.67 10 0.34 10 0 10 C0 6.7 0 3.4 0 0 Z " fill="#D8EEFB" transform="translate(656,618)"/>
<path d="M0 0 C1 4 1 4 1 4 Z " fill="#DDF0FC" transform="translate(658,697)"/>
<path d="" fill="#DBF0FB" transform="translate(0,0)"/>
<path d="" fill="#D8EEFC" transform="translate(0,0)"/>
<path d="" fill="#D4ECFC" transform="translate(0,0)"/>
<path d="" fill="#DFF1FC" transform="translate(0,0)"/>
<path d="" fill="#DDEEFB" transform="translate(0,0)"/>
<path d="" fill="#DEF2FD" transform="translate(0,0)"/>
<path d="" fill="#DEF2FD" transform="translate(0,0)"/>
<path d="" fill="#DDEEFA" transform="translate(0,0)"/>
<path d="M0 0 C2 1 2 1 2 1 Z " fill="#DEF0FC" transform="translate(480,687)"/>
<path d="M0 0 C2 1 2 1 2 1 Z " fill="#DCF0FB" transform="translate(472,687)"/>
<path d="M0 0 C2 1 2 1 2 1 Z " fill="#DCEFFB" transform="translate(456,687)"/>
<path d="M0 0 C2 1 2 1 2 1 Z " fill="#DEF1FC" transform="translate(408,687)"/>
<path d="M0 0 C2 1 2 1 2 1 Z " fill="#DFF0FB" transform="translate(400,687)"/>
<path d="M0 0 C2 1 2 1 2 1 Z " fill="#DEF1FE" transform="translate(384,687)"/>
<path d="" fill="#D9F0FC" transform="translate(0,0)"/>
<path d="" fill="#DAEFFB" transform="translate(0,0)"/>
<path d="" fill="#D6EBF7" transform="translate(0,0)"/>
<path d="" fill="#D2EAF9" transform="translate(0,0)"/>
<path d="" fill="#D0E9FA" transform="translate(0,0)"/>
<path d="" fill="#C3E2F4" transform="translate(0,0)"/>
<path d="" fill="#C1E1F5" transform="translate(0,0)"/>
<path d="" fill="#CBE6F8" transform="translate(0,0)"/>
<path d="" fill="#C9E3F5" transform="translate(0,0)"/>
<path d="M0 0 C2 1 2 1 2 1 Z " fill="#BFE0F0" transform="translate(468,313)"/>
<path d="M0 0 C2 1 2 1 2 1 Z " fill="#C0E0F2" transform="translate(420,313)"/>
<path d="M0 0 C2 1 2 1 2 1 Z " fill="#C1E3F6" transform="translate(641,247)"/>
<path d="" fill="#D5D9D8" transform="translate(0,0)"/>
<path d="" fill="#E3F1FA" transform="translate(0,0)"/>
<path d="" fill="#E4F3FA" transform="translate(0,0)"/>
<path d="" fill="#E6F2FA" transform="translate(0,0)"/>
<path d="" fill="#E5F5FA" transform="translate(0,0)"/>
<path d="" fill="#E3F2F9" transform="translate(0,0)"/>
<path d="" fill="#E2EFF9" transform="translate(0,0)"/>
<path d="" fill="#E1F1FB" transform="translate(0,0)"/>
<path d="" fill="#E2F1FA" transform="translate(0,0)"/>
<path d="" fill="#E2F2FA" transform="translate(0,0)"/>
<path d="" fill="#E1F1FB" transform="translate(0,0)"/>
<path d="" fill="#E2F2FF" transform="translate(0,0)"/>
<path d="" fill="#E1F3FD" transform="translate(0,0)"/>
<path d="" fill="#DEF2FD" transform="translate(0,0)"/>
<path d="" fill="#DFF2FD" transform="translate(0,0)"/>
<path d="" fill="#DEEEF8" transform="translate(0,0)"/>
<path d="" fill="#E0F2FB" transform="translate(0,0)"/>
<path d="" fill="#DEF0FC" transform="translate(0,0)"/>
<path d="" fill="#E2F2FC" transform="translate(0,0)"/>
<path d="" fill="#E4F3FC" transform="translate(0,0)"/>
<path d="" fill="#DFF1FB" transform="translate(0,0)"/>
<path d="" fill="#DDF2FC" transform="translate(0,0)"/>
<path d="" fill="#E3F1FC" transform="translate(0,0)"/>
<path d="" fill="#DEF0FD" transform="translate(0,0)"/>
<path d="" fill="#DDF1FC" transform="translate(0,0)"/>
<path d="" fill="#DBF0FA" transform="translate(0,0)"/>
<path d="" fill="#E0F2FD" transform="translate(0,0)"/>
<path d="" fill="#DFF1FC" transform="translate(0,0)"/>
<path d="" fill="#DDF1FC" transform="translate(0,0)"/>
<path d="" fill="#DBF0FB" transform="translate(0,0)"/>
<path d="" fill="#DEEFFB" transform="translate(0,0)"/>
<path d="" fill="#DDF2FF" transform="translate(0,0)"/>
<path d="" fill="#DDEEFA" transform="translate(0,0)"/>
<path d="" fill="#DCEEFA" transform="translate(0,0)"/>
<path d="" fill="#DCEFFA" transform="translate(0,0)"/>
<path d="" fill="#DCF0FD" transform="translate(0,0)"/>
<path d="" fill="#DEF0FC" transform="translate(0,0)"/>
<path d="" fill="#DDEFFA" transform="translate(0,0)"/>
<path d="" fill="#DEF2FD" transform="translate(0,0)"/>
<path d="" fill="#DCEFFC" transform="translate(0,0)"/>
<path d="" fill="#DFF1FD" transform="translate(0,0)"/>
<path d="" fill="#DDF2FC" transform="translate(0,0)"/>
<path d="" fill="#DFF2FE" transform="translate(0,0)"/>
<path d="" fill="#DEF2FC" transform="translate(0,0)"/>
<path d="" fill="#DCEEFB" transform="translate(0,0)"/>
<path d="" fill="#DDF1FC" transform="translate(0,0)"/>
<path d="" fill="#DEF0FC" transform="translate(0,0)"/>
<path d="" fill="#D6EEF9" transform="translate(0,0)"/>
<path d="" fill="#DDF0FA" transform="translate(0,0)"/>
<path d="" fill="#DCF0F8" transform="translate(0,0)"/>
<path d="" fill="#DCEEFC" transform="translate(0,0)"/>
<path d="" fill="#DAEDF9" transform="translate(0,0)"/>
<path d="" fill="#DAEFFD" transform="translate(0,0)"/>
<path d="" fill="#DEEFFB" transform="translate(0,0)"/>
<path d="" fill="#DAEFFB" transform="translate(0,0)"/>
<path d="" fill="#DCF0FC" transform="translate(0,0)"/>
<path d="" fill="#DCEFFB" transform="translate(0,0)"/>
<path d="" fill="#D8ECF9" transform="translate(0,0)"/>
<path d="" fill="#D8EDFA" transform="translate(0,0)"/>
<path d="" fill="#DAECF8" transform="translate(0,0)"/>
<path d="" fill="#D7ECF9" transform="translate(0,0)"/>
<path d="" fill="#D8EDF9" transform="translate(0,0)"/>
<path d="" fill="#D5EBF9" transform="translate(0,0)"/>
<path d="" fill="#D8ECFB" transform="translate(0,0)"/>
<path d="" fill="#D8ECFA" transform="translate(0,0)"/>
<path d="" fill="#CFE9F9" transform="translate(0,0)"/>
<path d="" fill="#D6EBF9" transform="translate(0,0)"/>
<path d="" fill="#D2E7F7" transform="translate(0,0)"/>
<path d="" fill="#D0E9F9" transform="translate(0,0)"/>
<path d="" fill="#CFE8F9" transform="translate(0,0)"/>
<path d="" fill="#D2EBF7" transform="translate(0,0)"/>
<path d="" fill="#D3EAFB" transform="translate(0,0)"/>
<path d="" fill="#D4EBF9" transform="translate(0,0)"/>
<path d="" fill="#D4EBF8" transform="translate(0,0)"/>
<path d="" fill="#D4EBF8" transform="translate(0,0)"/>
<path d="" fill="#D3E9F9" transform="translate(0,0)"/>
<path d="" fill="#D6EDFA" transform="translate(0,0)"/>
<path d="" fill="#CEEAF9" transform="translate(0,0)"/>
<path d="" fill="#D1E8F7" transform="translate(0,0)"/>
<path d="" fill="#D2EAF9" transform="translate(0,0)"/>
<path d="" fill="#D5E9FA" transform="translate(0,0)"/>
<path d="" fill="#D2E9FA" transform="translate(0,0)"/>
<path d="" fill="#D2EAF8" transform="translate(0,0)"/>
<path d="" fill="#D1EAFA" transform="translate(0,0)"/>
<path d="" fill="#CFE9F8" transform="translate(0,0)"/>
<path d="" fill="#CFE9F7" transform="translate(0,0)"/>
<path d="" fill="#CDE4F3" transform="translate(0,0)"/>
<path d="" fill="#D1EAFB" transform="translate(0,0)"/>
<path d="" fill="#CEE9F8" transform="translate(0,0)"/>
<path d="" fill="#CFEBF9" transform="translate(0,0)"/>
<path d="" fill="#D2E9F8" transform="translate(0,0)"/>
<path d="" fill="#CAE5F4" transform="translate(0,0)"/>
<path d="" fill="#CFE9F8" transform="translate(0,0)"/>
<path d="" fill="#CAE4F1" transform="translate(0,0)"/>
<path d="" fill="#CDE8F9" transform="translate(0,0)"/>
<path d="" fill="#D1EAF8" transform="translate(0,0)"/>
<path d="" fill="#CCE5F6" transform="translate(0,0)"/>
<path d="" fill="#CBE5F6" transform="translate(0,0)"/>
<path d="" fill="#C3E1F4" transform="translate(0,0)"/>
<path d="" fill="#C3E1F6" transform="translate(0,0)"/>
<path d="" fill="#CAE5F7" transform="translate(0,0)"/>
<path d="" fill="#C3E3F6" transform="translate(0,0)"/>
<path d="" fill="#C6E6F7" transform="translate(0,0)"/>
<path d="" fill="#C3E1F5" transform="translate(0,0)"/>
<path d="" fill="#C5E3F8" transform="translate(0,0)"/>
<path d="" fill="#C9E6F6" transform="translate(0,0)"/>
<path d="" fill="#CAE6F8" transform="translate(0,0)"/>
<path d="" fill="#C2E2F6" transform="translate(0,0)"/>
<path d="" fill="#C6E3F6" transform="translate(0,0)"/>
<path d="" fill="#C5E7F8" transform="translate(0,0)"/>
<path d="" fill="#C9E4F8" transform="translate(0,0)"/>
<path d="" fill="#CAE5F5" transform="translate(0,0)"/>
<path d="" fill="#C0E0F2" transform="translate(0,0)"/>
<path d="" fill="#C9E4F7" transform="translate(0,0)"/>
<path d="" fill="#C8E4F3" transform="translate(0,0)"/>
<path d="" fill="#C9E4F5" transform="translate(0,0)"/>
<path d="" fill="#BFDDED" transform="translate(0,0)"/>
<path d="" fill="#C8E5F6" transform="translate(0,0)"/>
<path d="" fill="#C5E1F5" transform="translate(0,0)"/>
<path d="" fill="#BFE0F4" transform="translate(0,0)"/>
<path d="" fill="#C1E0F2" transform="translate(0,0)"/>
<path d="" fill="#BFE0F2" transform="translate(0,0)"/>
<path d="" fill="#C0E1F3" transform="translate(0,0)"/>
<path d="" fill="#C0E0F4" transform="translate(0,0)"/>
<path d="" fill="#C5E2F4" transform="translate(0,0)"/>
<path d="" fill="#CDDFE7" transform="translate(0,0)"/>
<path d="" fill="#C8E4F6" transform="translate(0,0)"/>
<path d="" fill="#BDE2F7" transform="translate(0,0)"/>
<path d="" fill="#CBE6F6" transform="translate(0,0)"/>
<path d="" fill="#C6E3F3" transform="translate(0,0)"/>
<path d="" fill="#BEDDF4" transform="translate(0,0)"/>
<path d="" fill="#C1E1F5" transform="translate(0,0)"/>
<path d="" fill="#C4E0F2" transform="translate(0,0)"/>
<path d="" fill="#BDDDF0" transform="translate(0,0)"/>
<path d="" fill="#C2DEF2" transform="translate(0,0)"/>
<path d="" fill="#C2DEF1" transform="translate(0,0)"/>
<path d="" fill="#C2E0F0" transform="translate(0,0)"/>
<path d="" fill="#C4E0F1" transform="translate(0,0)"/>
<path d="" fill="#C5E1F0" transform="translate(0,0)"/>
<path d="" fill="#C3E5F7" transform="translate(0,0)"/>
<path d="" fill="#BFDFF2" transform="translate(0,0)"/>
<path d="" fill="#BFDEF2" transform="translate(0,0)"/>
<path d="" fill="#BDDEF5" transform="translate(0,0)"/>
<path d="" fill="#C2DFF3" transform="translate(0,0)"/>
<path d="" fill="#C3E2F5" transform="translate(0,0)"/>
<path d="" fill="#C0E0F5" transform="translate(0,0)"/>
<path d="" fill="#BDDEF5" transform="translate(0,0)"/>
<path d="" fill="#C0E0F6" transform="translate(0,0)"/>
<path d="" fill="#BFDFF4" transform="translate(0,0)"/>
<path d="" fill="#C0E1F7" transform="translate(0,0)"/>
<path d="" fill="#BEDFF6" transform="translate(0,0)"/>
<path d="" fill="#BCDEF4" transform="translate(0,0)"/>
<path d="" fill="#C0DFF3" transform="translate(0,0)"/>
<path d="" fill="#C1E1F3" transform="translate(0,0)"/>
<path d="" fill="#BDDEF2" transform="translate(0,0)"/>
<path d="" fill="#B8DAF0" transform="translate(0,0)"/>
<path d="" fill="#BBDDF0" transform="translate(0,0)"/>
<path d="" fill="#BADBEE" transform="translate(0,0)"/>
<path d="" fill="#BBDBF0" transform="translate(0,0)"/>
<path d="" fill="#BADCF0" transform="translate(0,0)"/>
<path d="" fill="#BCDFF2" transform="translate(0,0)"/>
<path d="" fill="#B8DAF3" transform="translate(0,0)"/>
<path d="" fill="#BCDCEF" transform="translate(0,0)"/>
<path d="" fill="#BADBF4" transform="translate(0,0)"/>
<path d="" fill="#BADDF3" transform="translate(0,0)"/>
<path d="" fill="#B7DDF2" transform="translate(0,0)"/>
<path d="" fill="#BBDCF1" transform="translate(0,0)"/>
</svg>
